G04 MADE WITH FRITZING*
G04 WWW.FRITZING.ORG*
G04 DOUBLE SIDED*
G04 HOLES PLATED*
G04 CONTOUR ON CENTER OF CONTOUR VECTOR*
%ASAXBY*%
%FSLAX23Y23*%
%MOIN*%
%OFA0B0*%
%SFA1.0B1.0*%
%ADD10C,0.049370*%
%ADD11C,0.135984*%
%ADD12C,0.080000*%
%ADD13C,0.085000*%
%ADD14C,0.095000*%
%ADD15C,0.084000*%
%ADD16R,0.083028X0.081501*%
%ADD17R,0.081756X0.084809*%
%ADD18R,0.083028X0.079550*%
%ADD19R,0.081501X0.081077*%
%ADD20R,0.081756X0.081756*%
%ADD21R,0.010028X0.010028*%
%ADD22R,0.092469X0.089707*%
%ADD23R,0.090184X0.090286*%
%ADD24R,0.088917X0.088056*%
%ADD25R,0.090000X0.090000*%
%ADD26R,0.090184X0.090012*%
%ADD27R,0.080000X0.079972*%
%ADD28R,0.084000X0.084000*%
%ADD29R,0.085000X0.085000*%
%LNMASK0*%
G90*
G70*
G54D10*
X4068Y2926D03*
X4769Y2027D03*
X4569Y2027D03*
X4867Y3025D03*
X4369Y2327D03*
X4570Y2327D03*
X4067Y1926D03*
X4269Y1926D03*
X3568Y3428D03*
X3769Y3427D03*
X4268Y3327D03*
X4468Y3327D03*
X4567Y3025D03*
G54D11*
X5708Y4213D03*
X196Y4213D03*
X5708Y197D03*
X196Y197D03*
G54D12*
X4769Y1227D03*
X4969Y1227D03*
X4769Y1327D03*
X4969Y1327D03*
G54D10*
X3370Y1728D03*
X2570Y3626D03*
X2467Y3725D03*
X4169Y3727D03*
X3369Y3728D03*
X5269Y3327D03*
X1369Y3826D03*
X1870Y3826D03*
X1870Y3826D03*
X2367Y3826D03*
X2367Y3826D03*
X2367Y3826D03*
X2868Y3826D03*
X2868Y3826D03*
X3068Y3826D03*
X3068Y3826D03*
X3069Y1627D03*
X3169Y1827D03*
X2969Y1727D03*
X5569Y1227D03*
G54D13*
X5269Y2727D03*
X5269Y2327D03*
G54D10*
X4270Y2629D03*
X3268Y2528D03*
X3368Y2728D03*
X3369Y2727D03*
X2768Y2726D03*
X3169Y2726D03*
X2768Y2627D03*
X3068Y2927D03*
X2367Y1826D03*
X1870Y1826D03*
X2869Y1827D03*
X5269Y1327D03*
X1068Y2626D03*
X1068Y2626D03*
X1568Y2626D03*
X1568Y2626D03*
X869Y1827D03*
X1369Y1826D03*
X1369Y1826D03*
X1870Y1826D03*
X2367Y1826D03*
X2869Y1827D03*
X869Y2827D03*
X1369Y2828D03*
X1369Y2828D03*
X1870Y2828D03*
X1870Y2828D03*
X2369Y2827D03*
X2369Y2827D03*
X2069Y2626D03*
X2668Y2528D03*
X2669Y2828D03*
X2669Y2828D03*
X1070Y1627D03*
X1569Y1627D03*
X2070Y1627D03*
X1070Y1627D03*
X1569Y1627D03*
X2070Y1627D03*
X2569Y1627D03*
X2569Y1627D03*
G54D14*
X2365Y1019D03*
X2169Y1019D03*
X2169Y527D03*
X2365Y527D03*
X1665Y1019D03*
X1469Y1019D03*
X1469Y527D03*
X1665Y527D03*
X969Y1027D03*
X772Y1027D03*
X772Y535D03*
X969Y535D03*
G54D15*
X3569Y427D03*
X3569Y527D03*
X3569Y627D03*
X3569Y727D03*
X3569Y827D03*
G54D12*
X3969Y427D03*
X4069Y427D03*
X4169Y427D03*
X4269Y427D03*
X4369Y427D03*
X4469Y427D03*
X4569Y427D03*
X4669Y427D03*
X4769Y427D03*
X4869Y427D03*
X4969Y427D03*
X5069Y427D03*
X5169Y427D03*
X5269Y427D03*
X5369Y427D03*
X3969Y1027D03*
X4069Y1027D03*
X4169Y1027D03*
X4269Y1027D03*
X4369Y1027D03*
X4469Y1027D03*
X4569Y1027D03*
X4669Y1027D03*
X4769Y1027D03*
X4869Y1027D03*
X4969Y1027D03*
X5069Y1027D03*
X5169Y1027D03*
X5269Y1027D03*
X5369Y1027D03*
G54D15*
X2968Y3426D03*
X3068Y3426D03*
X3168Y3426D03*
X3268Y3426D03*
X3366Y3427D03*
X3069Y4026D03*
X3169Y4026D03*
X3269Y4026D03*
X3368Y4027D03*
X2969Y4027D03*
X2969Y2427D03*
X3069Y2427D03*
X3169Y2427D03*
X3269Y2427D03*
X3367Y2427D03*
X3070Y3027D03*
X3170Y3027D03*
X3270Y3027D03*
X3369Y3027D03*
X2970Y3027D03*
X2969Y1427D03*
X3069Y1427D03*
X3169Y1427D03*
X3269Y1427D03*
X3367Y1427D03*
X3070Y2027D03*
X3170Y2027D03*
X3270Y2027D03*
X3369Y2027D03*
X2970Y2027D03*
X2468Y3426D03*
X2568Y3426D03*
X2668Y3426D03*
X2768Y3426D03*
X2866Y3427D03*
X2569Y4026D03*
X2669Y4026D03*
X2769Y4026D03*
X2868Y4027D03*
X2469Y4027D03*
X2469Y2427D03*
X2569Y2427D03*
X2669Y2427D03*
X2769Y2427D03*
X2867Y2427D03*
X2570Y3027D03*
X2670Y3027D03*
X2770Y3027D03*
X2869Y3027D03*
X2470Y3027D03*
X2469Y1427D03*
X2569Y1427D03*
X2669Y1427D03*
X2769Y1427D03*
X2867Y1427D03*
X2570Y2027D03*
X2670Y2027D03*
X2770Y2027D03*
X2869Y2027D03*
X2470Y2027D03*
X1969Y3426D03*
X2069Y3426D03*
X2169Y3426D03*
X2269Y3426D03*
X2368Y3427D03*
X2070Y4026D03*
X2170Y4026D03*
X2270Y4026D03*
X2369Y4027D03*
X1970Y4027D03*
X1969Y2427D03*
X2069Y2427D03*
X2169Y2427D03*
X2269Y2427D03*
X2367Y2427D03*
X2070Y3027D03*
X2170Y3027D03*
X2270Y3027D03*
X2369Y3027D03*
X1970Y3027D03*
X1969Y1427D03*
X2069Y1427D03*
X2169Y1427D03*
X2269Y1427D03*
X2367Y1427D03*
X2070Y2027D03*
X2170Y2027D03*
X2270Y2027D03*
X2369Y2027D03*
X1970Y2027D03*
X1470Y3427D03*
X1570Y3427D03*
X1670Y3427D03*
X1770Y3427D03*
X1869Y3427D03*
X1571Y4027D03*
X1671Y4027D03*
X1771Y4027D03*
X1870Y4027D03*
X1471Y4027D03*
X1469Y2427D03*
X1569Y2427D03*
X1669Y2427D03*
X1769Y2427D03*
X1867Y2427D03*
X1570Y3027D03*
X1670Y3027D03*
X1770Y3027D03*
X1869Y3027D03*
X1470Y3027D03*
X1469Y1427D03*
X1569Y1427D03*
X1669Y1427D03*
X1769Y1427D03*
X1867Y1427D03*
X1570Y2027D03*
X1670Y2027D03*
X1770Y2027D03*
X1869Y2027D03*
X1470Y2027D03*
X469Y2427D03*
X569Y2427D03*
X669Y2427D03*
X769Y2427D03*
X867Y2427D03*
X570Y3027D03*
X670Y3027D03*
X770Y3027D03*
X869Y3027D03*
X470Y3027D03*
X469Y1427D03*
X569Y1427D03*
X669Y1427D03*
X769Y1427D03*
X867Y1427D03*
X570Y2027D03*
X670Y2027D03*
X770Y2027D03*
X869Y2027D03*
X470Y2027D03*
X970Y3427D03*
X1070Y3427D03*
X1170Y3427D03*
X1270Y3427D03*
X1369Y3427D03*
X1071Y4027D03*
X1171Y4027D03*
X1271Y4027D03*
X1370Y4027D03*
X971Y4027D03*
X969Y2427D03*
X1069Y2427D03*
X1169Y2427D03*
X1269Y2427D03*
X1367Y2427D03*
X1070Y3027D03*
X1170Y3027D03*
X1270Y3027D03*
X1369Y3027D03*
X970Y3027D03*
X969Y1427D03*
X1069Y1427D03*
X1169Y1427D03*
X1269Y1427D03*
X1367Y1427D03*
X1070Y2027D03*
X1170Y2027D03*
X1270Y2027D03*
X1369Y2027D03*
X970Y2027D03*
G54D13*
X3869Y3527D03*
X3869Y3827D03*
X3969Y3527D03*
X3969Y3827D03*
X4069Y3527D03*
X4069Y3827D03*
X4169Y3527D03*
X4169Y3827D03*
X4269Y3527D03*
X4269Y3827D03*
X4369Y3527D03*
X4369Y3827D03*
X4469Y3527D03*
X4469Y3827D03*
X4569Y3527D03*
X4569Y3827D03*
X4669Y3527D03*
X4669Y3827D03*
X4769Y3527D03*
X4769Y3827D03*
X4869Y3527D03*
X4869Y3827D03*
X4969Y3527D03*
X4969Y3827D03*
X3869Y2527D03*
X3869Y2827D03*
X3969Y2527D03*
X3969Y2827D03*
X4069Y2527D03*
X4069Y2827D03*
X4169Y2527D03*
X4169Y2827D03*
X4269Y2527D03*
X4269Y2827D03*
X4369Y2527D03*
X4369Y2827D03*
X4469Y2527D03*
X4469Y2827D03*
X4569Y2527D03*
X4569Y2827D03*
X4669Y2527D03*
X4669Y2827D03*
X4769Y2527D03*
X4769Y2827D03*
X4869Y2527D03*
X4869Y2827D03*
X4969Y2527D03*
X4969Y2827D03*
X3870Y1527D03*
X3870Y1827D03*
X3970Y1527D03*
X3970Y1827D03*
X4070Y1527D03*
X4070Y1827D03*
X4170Y1527D03*
X4170Y1827D03*
X4270Y1527D03*
X4270Y1827D03*
X4370Y1527D03*
X4370Y1827D03*
X4470Y1527D03*
X4470Y1827D03*
X4570Y1527D03*
X4570Y1827D03*
X4670Y1527D03*
X4670Y1827D03*
X4770Y1527D03*
X4770Y1827D03*
X4870Y1527D03*
X4870Y1827D03*
X4970Y1527D03*
X4970Y1827D03*
X5269Y3327D03*
X5269Y3727D03*
X5269Y1327D03*
X5269Y1727D03*
G54D10*
X5269Y2527D03*
X4968Y2725D03*
X4968Y2725D03*
X5270Y2725D03*
X5270Y2725D03*
X1570Y3626D03*
X1570Y3626D03*
X2068Y3626D03*
X2068Y3626D03*
G54D16*
X3568Y826D03*
G54D17*
X3569Y728D03*
G54D18*
X3570Y627D03*
G54D19*
X3569Y426D03*
G54D20*
X3569Y527D03*
G54D21*
X3569Y427D03*
X3569Y527D03*
G54D19*
X3569Y527D03*
G54D20*
X3569Y427D03*
G54D21*
X3569Y427D03*
X3569Y527D03*
G54D19*
X3569Y527D03*
G54D20*
X3569Y427D03*
G54D21*
X3569Y427D03*
X3569Y527D03*
G54D19*
X3569Y527D03*
G54D20*
X3569Y427D03*
G54D22*
X3568Y827D03*
G54D23*
X3569Y727D03*
G54D24*
X3569Y627D03*
G54D25*
X3568Y527D03*
G54D26*
X3569Y427D03*
G54D27*
X3969Y427D03*
G54D28*
X2968Y3426D03*
X2969Y2427D03*
X2969Y1427D03*
X2468Y3426D03*
X2469Y2427D03*
X2469Y1427D03*
X1969Y3426D03*
X1969Y2427D03*
X1969Y1427D03*
X1470Y3427D03*
X1469Y2427D03*
X1469Y1427D03*
X469Y2427D03*
X469Y1427D03*
X970Y3427D03*
X969Y2427D03*
X969Y1427D03*
G54D29*
X3869Y3527D03*
X3869Y2527D03*
X3870Y1527D03*
G04 End of Mask0*
M02*