G04 MADE WITH FRITZING*
G04 WWW.FRITZING.ORG*
G04 DOUBLE SIDED*
G04 HOLES PLATED*
G04 CONTOUR ON CENTER OF CONTOUR VECTOR*
%ASAXBY*%
%FSLAX23Y23*%
%MOIN*%
%OFA0B0*%
%SFA1.0B1.0*%
%ADD10C,0.039370*%
%ADD11C,0.070000*%
%ADD12C,0.075000*%
%ADD13C,0.085000*%
%ADD14C,0.074000*%
%ADD15R,0.073028X0.071501*%
%ADD16R,0.071756X0.074809*%
%ADD17R,0.073028X0.069551*%
%ADD18R,0.071501X0.071077*%
%ADD19R,0.071756X0.071756*%
%ADD20R,0.000028X0.000028*%
%ADD21R,0.082469X0.079707*%
%ADD22R,0.080184X0.080286*%
%ADD23R,0.078917X0.078057*%
%ADD24R,0.080000X0.080000*%
%ADD25R,0.080184X0.080012*%
%ADD26R,0.070000X0.069972*%
%ADD27R,0.074000X0.074000*%
%ADD28R,0.075000X0.075000*%
%ADD29C,0.024000*%
%LNCOPPER0*%
G90*
G70*
G54D10*
X4068Y2926D03*
X4769Y2027D03*
X4569Y2027D03*
X4867Y3025D03*
X4369Y2327D03*
X4570Y2327D03*
X4067Y1926D03*
X4269Y1926D03*
X3568Y3428D03*
X3769Y3427D03*
X4268Y3327D03*
X4468Y3327D03*
X4567Y3025D03*
G54D11*
X4769Y1227D03*
X4969Y1227D03*
X4769Y1327D03*
X4969Y1327D03*
G54D10*
X3370Y1728D03*
X2570Y3626D03*
X2467Y3725D03*
X4169Y3727D03*
X3369Y3728D03*
X5269Y3327D03*
X1369Y3826D03*
X1870Y3826D03*
X1870Y3826D03*
X2367Y3826D03*
X2367Y3826D03*
X2367Y3826D03*
X2868Y3826D03*
X2868Y3826D03*
X3068Y3826D03*
X3068Y3826D03*
X3069Y1627D03*
X3169Y1827D03*
X2969Y1727D03*
X5569Y1227D03*
G54D12*
X5269Y2727D03*
X5269Y2327D03*
G54D10*
X4270Y2629D03*
X3268Y2528D03*
X3368Y2728D03*
X3369Y2727D03*
X2768Y2726D03*
X3169Y2726D03*
X2768Y2627D03*
X3068Y2927D03*
X2367Y1826D03*
X1870Y1826D03*
X2869Y1827D03*
X5269Y1327D03*
X1068Y2626D03*
X1068Y2626D03*
X1568Y2626D03*
X1568Y2626D03*
X869Y1827D03*
X1369Y1826D03*
X1369Y1826D03*
X1870Y1826D03*
X2367Y1826D03*
X2869Y1827D03*
X869Y2827D03*
X1369Y2828D03*
X1369Y2828D03*
X1870Y2828D03*
X1870Y2828D03*
X2369Y2827D03*
X2369Y2827D03*
X2069Y2626D03*
X2668Y2528D03*
X2669Y2828D03*
X2669Y2828D03*
X1070Y1627D03*
X1569Y1627D03*
X2070Y1627D03*
X1070Y1627D03*
X1569Y1627D03*
X2070Y1627D03*
X2569Y1627D03*
X2569Y1627D03*
G54D13*
X2365Y1019D03*
X2169Y1019D03*
X2169Y527D03*
X2365Y527D03*
X1665Y1019D03*
X1469Y1019D03*
X1469Y527D03*
X1665Y527D03*
X969Y1027D03*
X772Y1027D03*
X772Y535D03*
X969Y535D03*
G54D14*
X3569Y427D03*
X3569Y527D03*
X3569Y627D03*
X3569Y727D03*
X3569Y827D03*
G54D11*
X3969Y427D03*
X4069Y427D03*
X4169Y427D03*
X4269Y427D03*
X4369Y427D03*
X4469Y427D03*
X4569Y427D03*
X4669Y427D03*
X4769Y427D03*
X4869Y427D03*
X4969Y427D03*
X5069Y427D03*
X5169Y427D03*
X5269Y427D03*
X5369Y427D03*
X3969Y1027D03*
X4069Y1027D03*
X4169Y1027D03*
X4269Y1027D03*
X4369Y1027D03*
X4469Y1027D03*
X4569Y1027D03*
X4669Y1027D03*
X4769Y1027D03*
X4869Y1027D03*
X4969Y1027D03*
X5069Y1027D03*
X5169Y1027D03*
X5269Y1027D03*
X5369Y1027D03*
G54D14*
X2968Y3426D03*
X3068Y3426D03*
X3168Y3426D03*
X3268Y3426D03*
X3366Y3427D03*
X3069Y4026D03*
X3169Y4026D03*
X3269Y4026D03*
X3368Y4027D03*
X2969Y4027D03*
X2969Y2427D03*
X3069Y2427D03*
X3169Y2427D03*
X3269Y2427D03*
X3367Y2427D03*
X3070Y3027D03*
X3170Y3027D03*
X3270Y3027D03*
X3369Y3027D03*
X2970Y3027D03*
X2969Y1427D03*
X3069Y1427D03*
X3169Y1427D03*
X3269Y1427D03*
X3367Y1427D03*
X3070Y2027D03*
X3170Y2027D03*
X3270Y2027D03*
X3369Y2027D03*
X2970Y2027D03*
X2468Y3426D03*
X2568Y3426D03*
X2668Y3426D03*
X2768Y3426D03*
X2866Y3427D03*
X2569Y4026D03*
X2669Y4026D03*
X2769Y4026D03*
X2868Y4027D03*
X2469Y4027D03*
X2469Y2427D03*
X2569Y2427D03*
X2669Y2427D03*
X2769Y2427D03*
X2867Y2427D03*
X2570Y3027D03*
X2670Y3027D03*
X2770Y3027D03*
X2869Y3027D03*
X2470Y3027D03*
X2469Y1427D03*
X2569Y1427D03*
X2669Y1427D03*
X2769Y1427D03*
X2867Y1427D03*
X2570Y2027D03*
X2670Y2027D03*
X2770Y2027D03*
X2869Y2027D03*
X2470Y2027D03*
X1969Y3426D03*
X2069Y3426D03*
X2169Y3426D03*
X2269Y3426D03*
X2368Y3427D03*
X2070Y4026D03*
X2170Y4026D03*
X2270Y4026D03*
X2369Y4027D03*
X1970Y4027D03*
X1969Y2427D03*
X2069Y2427D03*
X2169Y2427D03*
X2269Y2427D03*
X2367Y2427D03*
X2070Y3027D03*
X2170Y3027D03*
X2270Y3027D03*
X2369Y3027D03*
X1970Y3027D03*
X1969Y1427D03*
X2069Y1427D03*
X2169Y1427D03*
X2269Y1427D03*
X2367Y1427D03*
X2070Y2027D03*
X2170Y2027D03*
X2270Y2027D03*
X2369Y2027D03*
X1970Y2027D03*
X1470Y3427D03*
X1570Y3427D03*
X1670Y3427D03*
X1770Y3427D03*
X1869Y3427D03*
X1571Y4027D03*
X1671Y4027D03*
X1771Y4027D03*
X1870Y4027D03*
X1471Y4027D03*
X1469Y2427D03*
X1569Y2427D03*
X1669Y2427D03*
X1769Y2427D03*
X1867Y2427D03*
X1570Y3027D03*
X1670Y3027D03*
X1770Y3027D03*
X1869Y3027D03*
X1470Y3027D03*
X1469Y1427D03*
X1569Y1427D03*
X1669Y1427D03*
X1769Y1427D03*
X1867Y1427D03*
X1570Y2027D03*
X1670Y2027D03*
X1770Y2027D03*
X1869Y2027D03*
X1470Y2027D03*
X469Y2427D03*
X569Y2427D03*
X669Y2427D03*
X769Y2427D03*
X867Y2427D03*
X570Y3027D03*
X670Y3027D03*
X770Y3027D03*
X869Y3027D03*
X470Y3027D03*
X469Y1427D03*
X569Y1427D03*
X669Y1427D03*
X769Y1427D03*
X867Y1427D03*
X570Y2027D03*
X670Y2027D03*
X770Y2027D03*
X869Y2027D03*
X470Y2027D03*
X970Y3427D03*
X1070Y3427D03*
X1170Y3427D03*
X1270Y3427D03*
X1369Y3427D03*
X1071Y4027D03*
X1171Y4027D03*
X1271Y4027D03*
X1370Y4027D03*
X971Y4027D03*
X969Y2427D03*
X1069Y2427D03*
X1169Y2427D03*
X1269Y2427D03*
X1367Y2427D03*
X1070Y3027D03*
X1170Y3027D03*
X1270Y3027D03*
X1369Y3027D03*
X970Y3027D03*
X969Y1427D03*
X1069Y1427D03*
X1169Y1427D03*
X1269Y1427D03*
X1367Y1427D03*
X1070Y2027D03*
X1170Y2027D03*
X1270Y2027D03*
X1369Y2027D03*
X970Y2027D03*
G54D12*
X3869Y3527D03*
X3869Y3827D03*
X3969Y3527D03*
X3969Y3827D03*
X4069Y3527D03*
X4069Y3827D03*
X4169Y3527D03*
X4169Y3827D03*
X4269Y3527D03*
X4269Y3827D03*
X4369Y3527D03*
X4369Y3827D03*
X4469Y3527D03*
X4469Y3827D03*
X4569Y3527D03*
X4569Y3827D03*
X4669Y3527D03*
X4669Y3827D03*
X4769Y3527D03*
X4769Y3827D03*
X4869Y3527D03*
X4869Y3827D03*
X4969Y3527D03*
X4969Y3827D03*
X3869Y2527D03*
X3869Y2827D03*
X3969Y2527D03*
X3969Y2827D03*
X4069Y2527D03*
X4069Y2827D03*
X4169Y2527D03*
X4169Y2827D03*
X4269Y2527D03*
X4269Y2827D03*
X4369Y2527D03*
X4369Y2827D03*
X4469Y2527D03*
X4469Y2827D03*
X4569Y2527D03*
X4569Y2827D03*
X4669Y2527D03*
X4669Y2827D03*
X4769Y2527D03*
X4769Y2827D03*
X4869Y2527D03*
X4869Y2827D03*
X4969Y2527D03*
X4969Y2827D03*
X3870Y1527D03*
X3870Y1827D03*
X3970Y1527D03*
X3970Y1827D03*
X4070Y1527D03*
X4070Y1827D03*
X4170Y1527D03*
X4170Y1827D03*
X4270Y1527D03*
X4270Y1827D03*
X4370Y1527D03*
X4370Y1827D03*
X4470Y1527D03*
X4470Y1827D03*
X4570Y1527D03*
X4570Y1827D03*
X4670Y1527D03*
X4670Y1827D03*
X4770Y1527D03*
X4770Y1827D03*
X4870Y1527D03*
X4870Y1827D03*
X4970Y1527D03*
X4970Y1827D03*
X5269Y3327D03*
X5269Y3727D03*
X5269Y1327D03*
X5269Y1727D03*
G54D10*
X5269Y2527D03*
X4968Y2725D03*
X4968Y2725D03*
X5270Y2725D03*
X5270Y2725D03*
X1570Y3626D03*
X1570Y3626D03*
X2068Y3626D03*
X2068Y3626D03*
G54D15*
X3568Y826D03*
G54D16*
X3569Y728D03*
G54D17*
X3570Y627D03*
G54D18*
X3569Y426D03*
G54D19*
X3569Y527D03*
G54D20*
X3569Y427D03*
X3569Y527D03*
G54D18*
X3569Y527D03*
G54D19*
X3569Y427D03*
G54D20*
X3569Y427D03*
X3569Y527D03*
G54D18*
X3569Y527D03*
G54D19*
X3569Y427D03*
G54D20*
X3569Y427D03*
X3569Y527D03*
G54D18*
X3569Y527D03*
G54D19*
X3569Y427D03*
G54D21*
X3568Y827D03*
G54D22*
X3569Y727D03*
G54D23*
X3569Y627D03*
G54D24*
X3568Y527D03*
G54D25*
X3569Y427D03*
G54D26*
X3969Y427D03*
G54D27*
X2968Y3426D03*
X2969Y2427D03*
X2969Y1427D03*
X2468Y3426D03*
X2469Y2427D03*
X2469Y1427D03*
X1969Y3426D03*
X1969Y2427D03*
X1969Y1427D03*
X1470Y3427D03*
X1469Y2427D03*
X1469Y1427D03*
X469Y2427D03*
X469Y1427D03*
X970Y3427D03*
X969Y2427D03*
X969Y1427D03*
G54D28*
X3869Y3527D03*
X3869Y2527D03*
X3870Y1527D03*
G54D29*
X3587Y3428D02*
X3750Y3427D01*
D02*
X3868Y2926D02*
X3869Y2856D01*
D02*
X4049Y2926D02*
X3868Y2926D01*
D02*
X4769Y2008D02*
X4770Y1856D01*
D02*
X4582Y2013D02*
X4668Y1928D01*
D02*
X4668Y1928D02*
X4669Y1856D01*
D02*
X4551Y2327D02*
X4388Y2327D01*
D02*
X4086Y1926D02*
X4250Y1926D01*
D02*
X4287Y3327D02*
X4449Y3327D01*
D02*
X4868Y2856D02*
X4867Y3006D01*
D02*
X4669Y2928D02*
X4581Y3012D01*
D02*
X4669Y2856D02*
X4669Y2928D01*
D02*
X3468Y1627D02*
X3369Y1627D01*
D02*
X3770Y1925D02*
X3468Y1627D01*
D02*
X3970Y1926D02*
X3770Y1925D01*
D02*
X3970Y1856D02*
X3970Y1926D01*
D02*
X1467Y3329D02*
X1469Y3396D01*
D02*
X1968Y3329D02*
X1467Y3329D01*
D02*
X1969Y3395D02*
X1968Y3329D01*
D02*
X1968Y3329D02*
X1969Y3395D01*
D02*
X2469Y3329D02*
X1968Y3329D01*
D02*
X2468Y3395D02*
X2469Y3329D01*
D02*
X4167Y3427D02*
X4668Y3427D01*
D02*
X4668Y3427D02*
X4668Y3498D01*
D02*
X4168Y3498D02*
X4167Y3427D01*
D02*
X3068Y3329D02*
X2570Y3329D01*
D02*
X3267Y3728D02*
X3267Y3528D01*
D02*
X3369Y3826D02*
X3267Y3728D01*
D02*
X3267Y3528D02*
X3267Y3458D01*
D02*
X4170Y3628D02*
X3669Y3629D01*
D02*
X3468Y3826D02*
X3369Y3826D01*
D02*
X3669Y3629D02*
X3468Y3826D01*
D02*
X4268Y3726D02*
X4170Y3628D01*
D02*
X4268Y3798D02*
X4268Y3726D01*
D02*
X3468Y3927D02*
X3669Y3726D01*
D02*
X3669Y3726D02*
X4150Y3727D01*
D02*
X3068Y3626D02*
X3369Y3927D01*
D02*
X3369Y3927D02*
X3468Y3927D01*
D02*
X2770Y3628D02*
X3068Y3626D01*
D02*
X3267Y3528D02*
X2767Y3527D01*
D02*
X2767Y3527D02*
X2767Y3458D01*
D02*
X3267Y3458D02*
X3267Y3528D01*
D02*
X3369Y3709D02*
X3367Y3458D01*
D02*
X4567Y4025D02*
X3399Y4026D01*
D02*
X4669Y3928D02*
X4567Y4025D01*
D02*
X4669Y3856D02*
X4669Y3928D01*
D02*
X5268Y3527D02*
X5269Y3346D01*
D02*
X4470Y3628D02*
X5170Y3628D01*
D02*
X5170Y3628D02*
X5268Y3527D01*
D02*
X4369Y3726D02*
X4470Y3628D01*
D02*
X4369Y3798D02*
X4369Y3726D01*
D02*
X1851Y3826D02*
X1388Y3826D01*
D02*
X2348Y3826D02*
X1889Y3826D01*
D02*
X2386Y3826D02*
X2849Y3826D01*
D02*
X1467Y3927D02*
X970Y3927D01*
D02*
X970Y3927D02*
X970Y3996D01*
D02*
X1470Y3996D02*
X1467Y3927D01*
D02*
X1968Y3927D02*
X1467Y3927D01*
D02*
X1467Y3927D02*
X1470Y3996D01*
D02*
X1969Y3996D02*
X1968Y3927D01*
D02*
X2469Y3927D02*
X2469Y3996D01*
D02*
X1968Y3927D02*
X2469Y3927D01*
D02*
X1969Y3996D02*
X1968Y3927D01*
D02*
X2970Y3927D02*
X2469Y3927D01*
D02*
X2469Y3927D02*
X2469Y3996D01*
D02*
X2969Y3996D02*
X2970Y3927D01*
D02*
X4770Y4025D02*
X4669Y4127D01*
D02*
X4769Y3856D02*
X4770Y4025D01*
D02*
X4669Y4127D02*
X3068Y4127D01*
D02*
X3068Y4127D02*
X3068Y4058D01*
D02*
X2868Y3728D02*
X3068Y3728D01*
D02*
X2868Y3807D02*
X2868Y3728D01*
D02*
X3068Y3728D02*
X3346Y4005D01*
D02*
X3081Y3839D02*
X3247Y4005D01*
D02*
X3081Y3839D02*
X3247Y4005D01*
D02*
X4997Y3827D02*
X5470Y3827D01*
D02*
X4469Y3728D02*
X5240Y3727D01*
D02*
X4469Y3798D02*
X4469Y3728D01*
D02*
X3069Y1458D02*
X3069Y1608D01*
D02*
X3069Y1627D02*
X3069Y1458D01*
D02*
X3369Y1627D02*
X3069Y1627D01*
D02*
X2968Y1728D02*
X2959Y1743D01*
D02*
X2869Y1725D02*
X2968Y1728D01*
D02*
X2868Y1458D02*
X2869Y1725D01*
D02*
X2869Y1725D02*
X2868Y1458D01*
D02*
X3269Y1528D02*
X3468Y1526D01*
D02*
X3468Y1526D02*
X3669Y1728D01*
D02*
X3269Y1458D02*
X3269Y1528D01*
D02*
X3669Y1728D02*
X4270Y1727D01*
D02*
X4270Y1727D02*
X4270Y1798D01*
D02*
X1268Y3228D02*
X3768Y3226D01*
D02*
X1170Y3325D02*
X1268Y3228D01*
D02*
X1170Y3396D02*
X1170Y3325D01*
D02*
X3868Y3326D02*
X3968Y3326D01*
D02*
X3968Y3326D02*
X4068Y3428D01*
D02*
X3768Y3226D02*
X3868Y3326D01*
D02*
X4068Y3428D02*
X4068Y3498D01*
D02*
X3369Y2827D02*
X3368Y2827D01*
D02*
X3069Y2626D02*
X2969Y2525D01*
D02*
X3170Y2626D02*
X3069Y2626D01*
D02*
X2969Y2525D02*
X2969Y2458D01*
D02*
X3368Y2827D02*
X3170Y2626D01*
D02*
X4568Y3226D02*
X4769Y3027D01*
D02*
X3768Y3126D02*
X3868Y3226D01*
D02*
X3868Y3226D02*
X4568Y3226D01*
D02*
X3068Y3127D02*
X3768Y3126D01*
D02*
X4769Y3027D02*
X4769Y2856D01*
D02*
X3069Y3058D02*
X3068Y3127D01*
D02*
X2570Y3128D02*
X3068Y3128D01*
D02*
X3068Y3128D02*
X3069Y3058D01*
D02*
X2570Y3058D02*
X2570Y3128D01*
D02*
X2570Y3128D02*
X2068Y3128D01*
D02*
X2068Y3128D02*
X2069Y3058D01*
D02*
X2570Y3058D02*
X2570Y3128D01*
D02*
X2068Y3128D02*
X1570Y3128D01*
D02*
X1570Y3128D02*
X1570Y3058D01*
D02*
X2069Y3058D02*
X2068Y3128D01*
D02*
X1570Y3128D02*
X1068Y3128D01*
D02*
X1068Y3128D02*
X1069Y3058D01*
D02*
X1570Y3058D02*
X1570Y3128D01*
D02*
X1068Y3128D02*
X570Y3128D01*
D02*
X570Y3128D02*
X570Y3058D01*
D02*
X1069Y3058D02*
X1068Y3128D01*
D02*
X4269Y2798D02*
X4269Y2728D01*
D02*
X4269Y2728D02*
X4169Y2628D01*
D02*
X3569Y2626D02*
X3468Y2525D01*
D02*
X4169Y2628D02*
X3569Y2626D01*
D02*
X3569Y2727D02*
X4069Y2728D01*
D02*
X3468Y2626D02*
X3569Y2727D01*
D02*
X3368Y2628D02*
X3468Y2626D01*
D02*
X4069Y2728D02*
X4069Y2798D01*
D02*
X3170Y2525D02*
X3355Y2713D01*
D02*
X3069Y2525D02*
X3170Y2525D01*
D02*
X3069Y2458D02*
X3069Y2525D01*
D02*
X3269Y2827D02*
X3368Y2927D01*
D02*
X3069Y2827D02*
X3269Y2827D01*
D02*
X2969Y2927D02*
X3069Y2827D01*
D02*
X2969Y2996D02*
X2969Y2927D01*
D02*
X3150Y2726D02*
X2787Y2726D01*
D02*
X1889Y1826D02*
X2348Y1826D01*
D02*
X2850Y1827D02*
X2386Y1826D01*
D02*
X5069Y1726D02*
X5268Y1527D01*
D02*
X4371Y1726D02*
X5069Y1726D01*
D02*
X5268Y1527D02*
X5268Y1346D01*
D02*
X4370Y1798D02*
X4371Y1726D01*
D02*
X3468Y2127D02*
X3569Y2227D01*
D02*
X3569Y2227D02*
X4668Y2226D01*
D02*
X4668Y2226D02*
X4767Y2326D01*
D02*
X4767Y2326D02*
X4768Y2498D01*
D02*
X770Y2127D02*
X3468Y2127D01*
D02*
X669Y2228D02*
X770Y2127D01*
D02*
X669Y2396D02*
X669Y2228D01*
D02*
X1370Y2727D02*
X969Y2725D01*
D02*
X969Y2725D02*
X870Y2626D01*
D02*
X870Y2626D02*
X868Y2458D01*
D02*
X1368Y2458D02*
X1370Y2727D01*
D02*
X3467Y2226D02*
X3569Y2328D01*
D02*
X3968Y2329D02*
X4069Y2426D01*
D02*
X3569Y2328D02*
X3968Y2329D01*
D02*
X4069Y2426D02*
X4069Y2498D01*
D02*
X1268Y2228D02*
X3467Y2226D01*
D02*
X1170Y2325D02*
X1268Y2228D01*
D02*
X1169Y2396D02*
X1170Y2325D01*
D02*
X1870Y2626D02*
X1769Y2727D01*
D02*
X1769Y2727D02*
X1370Y2727D01*
D02*
X1370Y2727D02*
X1368Y2458D01*
D02*
X1868Y2458D02*
X1870Y2626D01*
D02*
X2367Y2527D02*
X1870Y2528D01*
D02*
X1870Y2626D02*
X1868Y2458D01*
D02*
X1870Y2528D02*
X1870Y2626D01*
D02*
X2367Y2458D02*
X2367Y2527D01*
D02*
X2467Y2328D02*
X2468Y2396D01*
D02*
X1967Y2328D02*
X2467Y2328D01*
D02*
X1968Y2396D02*
X1967Y2328D01*
D02*
X1467Y2328D02*
X1967Y2328D01*
D02*
X1967Y2328D02*
X1968Y2396D01*
D02*
X1468Y2396D02*
X1467Y2328D01*
D02*
X2967Y2328D02*
X2968Y2396D01*
D02*
X2467Y2328D02*
X2967Y2328D01*
D02*
X2468Y2396D02*
X2467Y2328D01*
D02*
X3468Y2328D02*
X3569Y2428D01*
D02*
X3370Y2328D02*
X3468Y2328D01*
D02*
X3569Y2428D02*
X3969Y2429D01*
D02*
X3969Y2429D02*
X3969Y2498D01*
D02*
X3168Y2328D02*
X3370Y2328D01*
D02*
X3168Y2396D02*
X3168Y2328D01*
D02*
X4668Y2428D02*
X4169Y2428D01*
D02*
X4169Y2428D02*
X4169Y2498D01*
D02*
X4668Y2498D02*
X4668Y2428D01*
D02*
X3281Y2541D02*
X3368Y2628D01*
D02*
X1068Y2607D02*
X1068Y2458D01*
D02*
X1068Y2458D02*
X1068Y2607D01*
D02*
X1568Y2607D02*
X1568Y2458D01*
D02*
X1568Y2607D02*
X1568Y2458D01*
D02*
X3368Y2528D02*
X3290Y2449D01*
D02*
X1350Y2828D02*
X888Y2827D01*
D02*
X469Y1927D02*
X969Y1927D01*
D02*
X469Y1996D02*
X469Y1927D01*
D02*
X1467Y1927D02*
X969Y1927D01*
D02*
X1968Y1927D02*
X1467Y1927D01*
D02*
X2469Y1927D02*
X1968Y1927D01*
D02*
X2969Y1927D02*
X2469Y1927D01*
D02*
X2969Y1927D02*
X3168Y1927D01*
D02*
X3467Y1826D02*
X3669Y2025D01*
D02*
X3269Y1826D02*
X3467Y1826D01*
D02*
X3168Y1927D02*
X3269Y1826D01*
D02*
X3669Y2025D02*
X4469Y2027D01*
D02*
X4569Y1926D02*
X4570Y1856D01*
D02*
X4469Y2027D02*
X4569Y1926D01*
D02*
X969Y1927D02*
X970Y1996D01*
D02*
X969Y1927D02*
X970Y1996D01*
D02*
X1467Y1927D02*
X1469Y1996D01*
D02*
X1469Y1996D02*
X1467Y1927D01*
D02*
X1969Y1996D02*
X1968Y1927D01*
D02*
X1968Y1927D02*
X1969Y1996D01*
D02*
X2469Y1996D02*
X2469Y1927D01*
D02*
X2469Y1927D02*
X2469Y1996D01*
D02*
X2970Y1996D02*
X2969Y1927D01*
D02*
X2970Y1996D02*
X2969Y1927D01*
D02*
X888Y1827D02*
X1350Y1826D01*
D02*
X1388Y1826D02*
X1851Y1826D01*
D02*
X3150Y1827D02*
X2888Y1827D01*
D02*
X467Y2927D02*
X969Y2927D01*
D02*
X969Y2927D02*
X969Y2996D01*
D02*
X469Y2996D02*
X467Y2927D01*
D02*
X969Y2927D02*
X1467Y2927D01*
D02*
X1467Y2927D02*
X1469Y2996D01*
D02*
X969Y2996D02*
X969Y2927D01*
D02*
X1467Y2927D02*
X1969Y2927D01*
D02*
X1969Y2927D02*
X1969Y2996D01*
D02*
X1469Y2996D02*
X1467Y2927D01*
D02*
X1969Y2927D02*
X2467Y2927D01*
D02*
X2467Y2927D02*
X2469Y2996D01*
D02*
X1969Y2996D02*
X1969Y2927D01*
D02*
X1851Y2828D02*
X1388Y2828D01*
D02*
X2350Y2827D02*
X1889Y2828D01*
D02*
X2650Y2827D02*
X2388Y2827D01*
D02*
X3468Y2525D02*
X3368Y2528D01*
D02*
X2869Y2528D02*
X2687Y2528D01*
D02*
X2868Y2458D02*
X2869Y2528D01*
D02*
X2568Y2627D02*
X2088Y2626D01*
D02*
X2569Y2458D02*
X2568Y2627D01*
D02*
X2568Y2627D02*
X2569Y2458D01*
D02*
X2749Y2627D02*
X2568Y2627D01*
D02*
X2470Y2926D02*
X2969Y2927D01*
D02*
X2969Y2927D02*
X2969Y2996D01*
D02*
X2470Y2996D02*
X2470Y2926D01*
D02*
X3269Y2927D02*
X3347Y3005D01*
D02*
X3087Y2927D02*
X3269Y2927D01*
D02*
X3170Y2525D02*
X3069Y2525D01*
D02*
X3354Y2714D02*
X3170Y2525D01*
D02*
X3069Y2525D02*
X3069Y2458D01*
D02*
X5169Y1128D02*
X5069Y1228D01*
D02*
X5368Y1127D02*
X5169Y1128D01*
D02*
X5468Y1027D02*
X5368Y1127D01*
D02*
X4969Y1427D02*
X4970Y1526D01*
D02*
X5068Y1327D02*
X4969Y1427D01*
D02*
X5069Y1228D02*
X5068Y1327D01*
D02*
X5468Y828D02*
X5468Y1027D01*
D02*
X5168Y528D02*
X5468Y828D01*
D02*
X4970Y1526D02*
X4967Y1498D01*
D02*
X5169Y456D02*
X5168Y528D01*
D02*
X5369Y1426D02*
X5368Y1828D01*
D02*
X5468Y1327D02*
X5369Y1426D01*
D02*
X5555Y1240D02*
X5468Y1327D01*
D02*
X5368Y1828D02*
X4999Y1827D01*
D02*
X3568Y1026D02*
X3568Y861D01*
D02*
X3669Y1127D02*
X3568Y1026D01*
D02*
X4268Y1127D02*
X3669Y1127D01*
D02*
X4268Y1056D02*
X4268Y1127D01*
D02*
X3669Y728D02*
X3612Y727D01*
D02*
X3869Y926D02*
X3669Y728D01*
D02*
X4068Y928D02*
X3869Y926D01*
D02*
X4069Y998D02*
X4068Y928D01*
D02*
X4569Y827D02*
X4569Y998D01*
D02*
X4468Y726D02*
X4569Y827D01*
D02*
X3869Y728D02*
X4468Y726D01*
D02*
X3669Y528D02*
X3869Y728D01*
D02*
X3612Y528D02*
X3669Y528D01*
D02*
X4670Y726D02*
X4669Y998D01*
D02*
X4569Y627D02*
X4670Y726D01*
D02*
X3869Y628D02*
X4569Y627D01*
D02*
X3669Y428D02*
X3869Y628D01*
D02*
X3603Y427D02*
X3669Y428D01*
D02*
X5069Y1628D02*
X3871Y1628D01*
D02*
X5167Y1527D02*
X5069Y1628D01*
D02*
X3871Y1628D02*
X3870Y1556D01*
D02*
X5170Y1327D02*
X5167Y1527D01*
D02*
X5268Y1226D02*
X5170Y1327D01*
D02*
X5468Y1226D02*
X5268Y1226D01*
D02*
X5569Y1127D02*
X5468Y1226D01*
D02*
X5570Y726D02*
X5569Y1127D01*
D02*
X5368Y527D02*
X5570Y726D01*
D02*
X5368Y456D02*
X5368Y527D01*
D02*
X4070Y1428D02*
X4070Y1498D01*
D02*
X3368Y1227D02*
X3469Y1327D01*
D02*
X3469Y1327D02*
X3970Y1327D01*
D02*
X3970Y1327D02*
X4070Y1428D01*
D02*
X1268Y1228D02*
X3368Y1227D01*
D02*
X1170Y1329D02*
X1268Y1228D01*
D02*
X1169Y1396D02*
X1170Y1329D01*
D02*
X3368Y1127D02*
X3469Y1227D01*
D02*
X3469Y1227D02*
X3970Y1227D01*
D02*
X3970Y1227D02*
X4070Y1327D01*
D02*
X4070Y1327D02*
X4668Y1326D01*
D02*
X4668Y1326D02*
X4770Y1428D01*
D02*
X770Y1127D02*
X3368Y1127D01*
D02*
X4770Y1428D02*
X4770Y1498D01*
D02*
X669Y1228D02*
X770Y1127D01*
D02*
X669Y1396D02*
X669Y1228D01*
D02*
X4171Y1427D02*
X4670Y1427D01*
D02*
X4670Y1427D02*
X4670Y1498D01*
D02*
X4170Y1498D02*
X4171Y1427D01*
D02*
X4869Y2027D02*
X4870Y1856D01*
D02*
X4769Y2127D02*
X4869Y2027D01*
D02*
X3669Y2127D02*
X4769Y2127D01*
D02*
X3467Y1927D02*
X3669Y2127D01*
D02*
X3269Y1927D02*
X3467Y1927D01*
D02*
X3270Y1996D02*
X3269Y1927D01*
D02*
X3069Y1728D02*
X2968Y1627D01*
D02*
X2968Y1627D02*
X2968Y1458D01*
D02*
X3351Y1728D02*
X3069Y1728D01*
D02*
X3970Y1428D02*
X3970Y1498D01*
D02*
X3368Y1327D02*
X3469Y1428D01*
D02*
X3469Y1428D02*
X3970Y1428D01*
D02*
X3170Y1326D02*
X3368Y1327D01*
D02*
X3169Y1396D02*
X3170Y1326D01*
D02*
X970Y1727D02*
X870Y1627D01*
D02*
X870Y1627D02*
X868Y1458D01*
D02*
X1370Y1725D02*
X970Y1727D01*
D02*
X1368Y1458D02*
X1370Y1725D01*
D02*
X1070Y1608D02*
X1070Y1527D01*
D02*
X1070Y1527D02*
X1069Y1458D01*
D02*
X1569Y1458D02*
X1569Y1608D01*
D02*
X1469Y1327D02*
X1469Y1396D01*
D02*
X1970Y1327D02*
X1469Y1327D01*
D02*
X1969Y1396D02*
X1970Y1327D01*
D02*
X1867Y1725D02*
X1867Y1458D01*
D02*
X1370Y1725D02*
X1867Y1725D01*
D02*
X1368Y1458D02*
X1370Y1725D01*
D02*
X2069Y1458D02*
X2070Y1608D01*
D02*
X1070Y1608D02*
X1069Y1458D01*
D02*
X1569Y1608D02*
X1569Y1458D01*
D02*
X1970Y1327D02*
X1969Y1396D01*
D02*
X2470Y1327D02*
X1970Y1327D01*
D02*
X2469Y1396D02*
X2470Y1327D01*
D02*
X2368Y1725D02*
X2367Y1458D01*
D02*
X1867Y1725D02*
X2368Y1725D01*
D02*
X1867Y1458D02*
X1867Y1725D01*
D02*
X2070Y1608D02*
X2069Y1458D01*
D02*
X2569Y1528D02*
X2569Y1608D01*
D02*
X2569Y1458D02*
X2569Y1528D01*
D02*
X2470Y1327D02*
X2469Y1396D01*
D02*
X2970Y1327D02*
X2470Y1327D01*
D02*
X2969Y1396D02*
X2969Y1327D01*
D02*
X2368Y1725D02*
X2869Y1725D01*
D02*
X2368Y1458D02*
X2368Y1725D01*
D02*
X2569Y1608D02*
X2569Y1458D01*
D02*
X970Y628D02*
X969Y570D01*
D02*
X1068Y727D02*
X970Y628D01*
D02*
X1669Y727D02*
X1068Y727D01*
D02*
X1666Y562D02*
X1669Y727D01*
D02*
X1669Y727D02*
X1666Y562D01*
D02*
X2369Y727D02*
X1669Y727D01*
D02*
X2366Y562D02*
X2369Y727D01*
D02*
X970Y628D02*
X1068Y727D01*
D02*
X1068Y727D02*
X3525Y727D01*
D02*
X969Y570D02*
X970Y628D01*
D02*
X5369Y2426D02*
X5368Y1828D01*
D02*
X5368Y1828D02*
X4999Y1827D01*
D02*
X4289Y2629D02*
X4870Y2626D01*
D02*
X4870Y2626D02*
X4869Y2556D01*
D02*
X5069Y2426D02*
X5167Y2329D01*
D02*
X5069Y2628D02*
X5069Y2426D01*
D02*
X5167Y2329D02*
X5240Y2327D01*
D02*
X4968Y2626D02*
X5069Y2628D01*
D02*
X4870Y2725D02*
X4968Y2626D01*
D02*
X4471Y2725D02*
X4870Y2725D01*
D02*
X4469Y2798D02*
X4471Y2725D01*
D02*
X5169Y2627D02*
X5169Y2426D01*
D02*
X5169Y2426D02*
X5369Y2426D01*
D02*
X5368Y2626D02*
X5169Y2627D01*
D02*
X5368Y2828D02*
X5368Y2626D01*
D02*
X4997Y2827D02*
X5368Y2828D01*
D02*
X5368Y2828D02*
X4997Y2827D01*
D02*
X5567Y2527D02*
X5470Y2426D01*
D02*
X5567Y3726D02*
X5567Y2527D01*
D02*
X5470Y3827D02*
X5567Y3726D01*
D02*
X5470Y2426D02*
X5169Y2426D01*
D02*
X5169Y2426D02*
X5169Y2627D01*
D02*
X5169Y2627D02*
X5368Y2626D01*
D02*
X5368Y2626D02*
X5368Y2828D01*
D02*
X5288Y2527D02*
X5369Y2527D01*
D02*
X5470Y2628D02*
X5470Y3127D01*
D02*
X5470Y3127D02*
X5369Y3228D01*
D02*
X5369Y2527D02*
X5470Y2628D01*
D02*
X5167Y3228D02*
X4969Y3427D01*
D02*
X4969Y3427D02*
X4969Y3498D01*
D02*
X5369Y3228D02*
X5167Y3228D01*
D02*
X5240Y2727D02*
X4987Y2725D01*
D02*
X5251Y2725D02*
X4987Y2725D01*
D02*
X3569Y2928D02*
X3468Y2827D01*
D02*
X3468Y2827D02*
X3369Y2827D01*
D02*
X3768Y2926D02*
X3569Y2928D01*
D02*
X3868Y3026D02*
X3768Y2926D01*
D02*
X4068Y3026D02*
X3868Y3026D01*
D02*
X4168Y2926D02*
X4068Y3026D01*
D02*
X4168Y2856D02*
X4168Y2926D01*
D02*
X3468Y2928D02*
X3569Y3029D01*
D02*
X4368Y3126D02*
X4568Y2926D01*
D02*
X3768Y3026D02*
X3868Y3126D01*
D02*
X3868Y3126D02*
X4368Y3126D01*
D02*
X3569Y3029D02*
X3768Y3026D01*
D02*
X3368Y2927D02*
X3468Y2928D01*
D02*
X4568Y2926D02*
X4568Y2856D01*
D02*
X4369Y3726D02*
X4369Y3798D01*
D02*
X5268Y3527D02*
X5167Y3628D01*
D02*
X4470Y3628D02*
X4369Y3726D01*
D02*
X5167Y3628D02*
X4470Y3628D01*
D02*
X5268Y3356D02*
X5268Y3527D01*
D02*
X3170Y3326D02*
X3168Y3395D01*
D02*
X3768Y3326D02*
X3170Y3326D01*
D02*
X3868Y3428D02*
X3768Y3326D01*
D02*
X3969Y3429D02*
X3868Y3428D01*
D02*
X3969Y3498D02*
X3969Y3429D01*
D02*
X1867Y3725D02*
X1467Y3725D01*
D02*
X1467Y3725D02*
X1368Y3626D01*
D02*
X1368Y3626D02*
X1368Y3458D01*
D02*
X1868Y3458D02*
X1867Y3725D01*
D02*
X2368Y3725D02*
X2368Y3458D01*
D02*
X1867Y3725D02*
X2368Y3725D01*
D02*
X1868Y3458D02*
X1867Y3725D01*
D02*
X2368Y3725D02*
X2448Y3725D01*
D02*
X2368Y3458D02*
X2368Y3725D01*
D02*
X2669Y3527D02*
X2770Y3628D01*
D02*
X2668Y3458D02*
X2669Y3527D01*
D02*
X1570Y3607D02*
X1570Y3458D01*
D02*
X1570Y3607D02*
X1570Y3458D01*
D02*
X2068Y3607D02*
X2069Y3458D01*
D02*
X2069Y3458D02*
X2068Y3607D01*
D02*
X2570Y3329D02*
X2568Y3395D01*
D02*
X2568Y3458D02*
X2570Y3607D01*
D02*
X3068Y3395D02*
X3068Y3329D01*
G04 End of Copper0*
M02*