G04 MADE WITH FRITZING*
G04 WWW.FRITZING.ORG*
G04 DOUBLE SIDED*
G04 HOLES PLATED*
G04 CONTOUR ON CENTER OF CONTOUR VECTOR*
%ASAXBY*%
%FSLAX23Y23*%
%MOIN*%
%OFA0B0*%
%SFA1.0B1.0*%
%ADD10C,0.039370*%
%ADD11C,0.070000*%
%ADD12C,0.075000*%
%ADD13C,0.085000*%
%ADD14C,0.074000*%
%ADD15R,0.073028X0.071501*%
%ADD16R,0.071756X0.074809*%
%ADD17R,0.073028X0.069551*%
%ADD18R,0.071501X0.071077*%
%ADD19R,0.071756X0.071756*%
%ADD20R,0.000028X0.000028*%
%ADD21R,0.082469X0.079707*%
%ADD22R,0.080184X0.080286*%
%ADD23R,0.078917X0.078057*%
%ADD24R,0.080000X0.080000*%
%ADD25R,0.080184X0.080012*%
%ADD26R,0.070000X0.069972*%
%ADD27R,0.074000X0.074000*%
%ADD28R,0.075000X0.075000*%
%ADD29C,0.024000*%
%ADD30R,0.001000X0.001000*%
%LNCOPPER1*%
G90*
G70*
G54D10*
X4068Y2926D03*
X4769Y2027D03*
X4569Y2027D03*
X4867Y3025D03*
X4369Y2327D03*
X4570Y2327D03*
X4067Y1926D03*
X4269Y1926D03*
X3568Y3428D03*
X3769Y3427D03*
X4268Y3327D03*
X4468Y3327D03*
X4567Y3025D03*
G54D11*
X4769Y1227D03*
X4969Y1227D03*
X4769Y1327D03*
X4969Y1327D03*
G54D10*
X3370Y1728D03*
X2570Y3626D03*
X2467Y3725D03*
X4169Y3727D03*
X3369Y3728D03*
X5269Y3327D03*
X1369Y3826D03*
X1870Y3826D03*
X1870Y3826D03*
X2367Y3826D03*
X2367Y3826D03*
X2367Y3826D03*
X2868Y3826D03*
X2868Y3826D03*
X3068Y3826D03*
X3068Y3826D03*
X3069Y1627D03*
X3169Y1827D03*
X2969Y1727D03*
X5569Y1227D03*
G54D12*
X5269Y2727D03*
X5269Y2327D03*
G54D10*
X4270Y2629D03*
X3268Y2528D03*
X3368Y2728D03*
X3369Y2727D03*
X2768Y2726D03*
X3169Y2726D03*
X2768Y2627D03*
X3068Y2927D03*
X2367Y1826D03*
X1870Y1826D03*
X2869Y1827D03*
X5269Y1327D03*
X1068Y2626D03*
X1068Y2626D03*
X1568Y2626D03*
X1568Y2626D03*
X869Y1827D03*
X1369Y1826D03*
X1369Y1826D03*
X1870Y1826D03*
X2367Y1826D03*
X2869Y1827D03*
X869Y2827D03*
X1369Y2828D03*
X1369Y2828D03*
X1870Y2828D03*
X1870Y2828D03*
X2369Y2827D03*
X2369Y2827D03*
X2069Y2626D03*
X2668Y2528D03*
X2669Y2828D03*
X2669Y2828D03*
X1070Y1627D03*
X1569Y1627D03*
X2070Y1627D03*
X1070Y1627D03*
X1569Y1627D03*
X2070Y1627D03*
X2569Y1627D03*
X2569Y1627D03*
G54D13*
X2365Y1019D03*
X2169Y1019D03*
X2169Y527D03*
X2365Y527D03*
X2365Y1019D03*
X2169Y1019D03*
X2169Y527D03*
X2365Y527D03*
X1665Y1019D03*
X1469Y1019D03*
X1469Y527D03*
X1665Y527D03*
X1665Y1019D03*
X1469Y1019D03*
X1469Y527D03*
X1665Y527D03*
X969Y1027D03*
X772Y1027D03*
X772Y535D03*
X969Y535D03*
X969Y1027D03*
X772Y1027D03*
X772Y535D03*
X969Y535D03*
G54D14*
X3569Y427D03*
X3569Y527D03*
X3569Y627D03*
X3569Y727D03*
X3569Y827D03*
G54D11*
X3969Y427D03*
X4069Y427D03*
X4169Y427D03*
X4269Y427D03*
X4369Y427D03*
X4469Y427D03*
X4569Y427D03*
X4669Y427D03*
X4769Y427D03*
X4869Y427D03*
X4969Y427D03*
X5069Y427D03*
X5169Y427D03*
X5269Y427D03*
X5369Y427D03*
X3969Y1027D03*
X4069Y1027D03*
X4169Y1027D03*
X4269Y1027D03*
X4369Y1027D03*
X4469Y1027D03*
X4569Y1027D03*
X4669Y1027D03*
X4769Y1027D03*
X4869Y1027D03*
X4969Y1027D03*
X5069Y1027D03*
X5169Y1027D03*
X5269Y1027D03*
X5369Y1027D03*
G54D14*
X2968Y3426D03*
X3068Y3426D03*
X3168Y3426D03*
X3268Y3426D03*
X3366Y3427D03*
X3069Y4026D03*
X3169Y4026D03*
X3269Y4026D03*
X3368Y4027D03*
X2969Y4027D03*
X2969Y2427D03*
X3069Y2427D03*
X3169Y2427D03*
X3269Y2427D03*
X3367Y2427D03*
X3070Y3027D03*
X3170Y3027D03*
X3270Y3027D03*
X3369Y3027D03*
X2970Y3027D03*
X2969Y1427D03*
X3069Y1427D03*
X3169Y1427D03*
X3269Y1427D03*
X3367Y1427D03*
X3070Y2027D03*
X3170Y2027D03*
X3270Y2027D03*
X3369Y2027D03*
X2970Y2027D03*
X2468Y3426D03*
X2568Y3426D03*
X2668Y3426D03*
X2768Y3426D03*
X2866Y3427D03*
X2569Y4026D03*
X2669Y4026D03*
X2769Y4026D03*
X2868Y4027D03*
X2469Y4027D03*
X2469Y2427D03*
X2569Y2427D03*
X2669Y2427D03*
X2769Y2427D03*
X2867Y2427D03*
X2570Y3027D03*
X2670Y3027D03*
X2770Y3027D03*
X2869Y3027D03*
X2470Y3027D03*
X2469Y1427D03*
X2569Y1427D03*
X2669Y1427D03*
X2769Y1427D03*
X2867Y1427D03*
X2570Y2027D03*
X2670Y2027D03*
X2770Y2027D03*
X2869Y2027D03*
X2470Y2027D03*
X1969Y3426D03*
X2069Y3426D03*
X2169Y3426D03*
X2269Y3426D03*
X2368Y3427D03*
X2070Y4026D03*
X2170Y4026D03*
X2270Y4026D03*
X2369Y4027D03*
X1970Y4027D03*
X1969Y2427D03*
X2069Y2427D03*
X2169Y2427D03*
X2269Y2427D03*
X2367Y2427D03*
X2070Y3027D03*
X2170Y3027D03*
X2270Y3027D03*
X2369Y3027D03*
X1970Y3027D03*
X1969Y1427D03*
X2069Y1427D03*
X2169Y1427D03*
X2269Y1427D03*
X2367Y1427D03*
X2070Y2027D03*
X2170Y2027D03*
X2270Y2027D03*
X2369Y2027D03*
X1970Y2027D03*
X1470Y3427D03*
X1570Y3427D03*
X1670Y3427D03*
X1770Y3427D03*
X1869Y3427D03*
X1571Y4027D03*
X1671Y4027D03*
X1771Y4027D03*
X1870Y4027D03*
X1471Y4027D03*
X1469Y2427D03*
X1569Y2427D03*
X1669Y2427D03*
X1769Y2427D03*
X1867Y2427D03*
X1570Y3027D03*
X1670Y3027D03*
X1770Y3027D03*
X1869Y3027D03*
X1470Y3027D03*
X1469Y1427D03*
X1569Y1427D03*
X1669Y1427D03*
X1769Y1427D03*
X1867Y1427D03*
X1570Y2027D03*
X1670Y2027D03*
X1770Y2027D03*
X1869Y2027D03*
X1470Y2027D03*
X469Y2427D03*
X569Y2427D03*
X669Y2427D03*
X769Y2427D03*
X867Y2427D03*
X570Y3027D03*
X670Y3027D03*
X770Y3027D03*
X869Y3027D03*
X470Y3027D03*
X469Y1427D03*
X569Y1427D03*
X669Y1427D03*
X769Y1427D03*
X867Y1427D03*
X570Y2027D03*
X670Y2027D03*
X770Y2027D03*
X869Y2027D03*
X470Y2027D03*
X970Y3427D03*
X1070Y3427D03*
X1170Y3427D03*
X1270Y3427D03*
X1369Y3427D03*
X1071Y4027D03*
X1171Y4027D03*
X1271Y4027D03*
X1370Y4027D03*
X971Y4027D03*
X969Y2427D03*
X1069Y2427D03*
X1169Y2427D03*
X1269Y2427D03*
X1367Y2427D03*
X1070Y3027D03*
X1170Y3027D03*
X1270Y3027D03*
X1369Y3027D03*
X970Y3027D03*
X969Y1427D03*
X1069Y1427D03*
X1169Y1427D03*
X1269Y1427D03*
X1367Y1427D03*
X1070Y2027D03*
X1170Y2027D03*
X1270Y2027D03*
X1369Y2027D03*
X970Y2027D03*
G54D12*
X3869Y3527D03*
X3869Y3827D03*
X3969Y3527D03*
X3969Y3827D03*
X4069Y3527D03*
X4069Y3827D03*
X4169Y3527D03*
X4169Y3827D03*
X4269Y3527D03*
X4269Y3827D03*
X4369Y3527D03*
X4369Y3827D03*
X4469Y3527D03*
X4469Y3827D03*
X4569Y3527D03*
X4569Y3827D03*
X4669Y3527D03*
X4669Y3827D03*
X4769Y3527D03*
X4769Y3827D03*
X4869Y3527D03*
X4869Y3827D03*
X4969Y3527D03*
X4969Y3827D03*
X3869Y2527D03*
X3869Y2827D03*
X3969Y2527D03*
X3969Y2827D03*
X4069Y2527D03*
X4069Y2827D03*
X4169Y2527D03*
X4169Y2827D03*
X4269Y2527D03*
X4269Y2827D03*
X4369Y2527D03*
X4369Y2827D03*
X4469Y2527D03*
X4469Y2827D03*
X4569Y2527D03*
X4569Y2827D03*
X4669Y2527D03*
X4669Y2827D03*
X4769Y2527D03*
X4769Y2827D03*
X4869Y2527D03*
X4869Y2827D03*
X4969Y2527D03*
X4969Y2827D03*
X3870Y1527D03*
X3870Y1827D03*
X3970Y1527D03*
X3970Y1827D03*
X4070Y1527D03*
X4070Y1827D03*
X4170Y1527D03*
X4170Y1827D03*
X4270Y1527D03*
X4270Y1827D03*
X4370Y1527D03*
X4370Y1827D03*
X4470Y1527D03*
X4470Y1827D03*
X4570Y1527D03*
X4570Y1827D03*
X4670Y1527D03*
X4670Y1827D03*
X4770Y1527D03*
X4770Y1827D03*
X4870Y1527D03*
X4870Y1827D03*
X4970Y1527D03*
X4970Y1827D03*
X5269Y3327D03*
X5269Y3727D03*
X5269Y1327D03*
X5269Y1727D03*
G54D10*
X5269Y2527D03*
X4968Y2725D03*
X4968Y2725D03*
X5270Y2725D03*
X5270Y2725D03*
X1570Y3626D03*
X1570Y3626D03*
X2068Y3626D03*
X2068Y3626D03*
G54D15*
X3568Y826D03*
G54D16*
X3569Y728D03*
G54D17*
X3570Y627D03*
G54D18*
X3569Y426D03*
G54D19*
X3569Y527D03*
G54D20*
X3569Y427D03*
X3569Y527D03*
G54D18*
X3569Y527D03*
G54D19*
X3569Y427D03*
G54D20*
X3569Y427D03*
X3569Y527D03*
G54D18*
X3569Y527D03*
G54D19*
X3569Y427D03*
G54D20*
X3569Y427D03*
X3569Y527D03*
G54D18*
X3569Y527D03*
G54D19*
X3569Y427D03*
G54D21*
X3568Y827D03*
G54D22*
X3569Y727D03*
G54D23*
X3569Y627D03*
G54D24*
X3568Y527D03*
G54D25*
X3569Y427D03*
G54D15*
X3568Y826D03*
G54D16*
X3569Y728D03*
G54D17*
X3570Y627D03*
G54D18*
X3569Y426D03*
G54D19*
X3569Y527D03*
G54D20*
X3569Y427D03*
X3569Y527D03*
G54D18*
X3569Y527D03*
G54D19*
X3569Y427D03*
G54D20*
X3569Y427D03*
X3569Y527D03*
G54D18*
X3569Y527D03*
G54D19*
X3569Y427D03*
G54D20*
X3569Y427D03*
X3569Y527D03*
G54D18*
X3569Y527D03*
G54D19*
X3569Y427D03*
G54D21*
X3568Y827D03*
G54D22*
X3569Y727D03*
G54D23*
X3569Y627D03*
G54D24*
X3568Y527D03*
G54D25*
X3569Y427D03*
G54D26*
X3969Y427D03*
G54D27*
X2968Y3426D03*
X2969Y2427D03*
X2969Y1427D03*
X2468Y3426D03*
X2469Y2427D03*
X2469Y1427D03*
X1969Y3426D03*
X1969Y2427D03*
X1969Y1427D03*
X1470Y3427D03*
X1469Y2427D03*
X1469Y1427D03*
X469Y2427D03*
X469Y1427D03*
X970Y3427D03*
X969Y2427D03*
X969Y1427D03*
G54D28*
X3869Y3527D03*
X3869Y2527D03*
X3870Y1527D03*
G54D29*
X4854Y3039D02*
X4769Y3126D01*
D02*
X4870Y2226D02*
X4769Y2327D01*
D02*
X4869Y2027D02*
X4870Y2226D01*
D02*
X3868Y1926D02*
X4048Y1926D01*
D02*
X4769Y1926D02*
X4869Y2027D01*
D02*
X4288Y1926D02*
X4769Y1926D01*
D02*
X4769Y2327D02*
X4589Y2327D01*
D02*
X4355Y2340D02*
X4269Y2428D01*
D02*
X4269Y2428D02*
X3868Y2428D01*
D02*
X3868Y2428D02*
X3869Y2498D01*
D02*
X3869Y1856D02*
X3868Y1926D01*
D02*
X4868Y2927D02*
X4087Y2926D01*
D02*
X4969Y3026D02*
X4868Y2927D01*
D02*
X4969Y3226D02*
X4969Y3026D01*
D02*
X4868Y3327D02*
X4969Y3226D01*
D02*
X4487Y3327D02*
X4868Y3327D01*
D02*
X3768Y3326D02*
X4249Y3327D01*
D02*
X3669Y3428D02*
X3768Y3326D01*
D02*
X3669Y3528D02*
X3669Y3428D01*
D02*
X3840Y3527D02*
X3669Y3528D01*
D02*
X4868Y527D02*
X4668Y728D01*
D02*
X4668Y728D02*
X4168Y728D01*
D02*
X4168Y728D02*
X3769Y1126D01*
D02*
X3769Y1126D02*
X3467Y1126D01*
D02*
X3467Y1126D02*
X3368Y1027D01*
D02*
X3368Y1027D02*
X2569Y1027D01*
D02*
X2569Y1027D02*
X2468Y1126D01*
D02*
X2468Y1126D02*
X2369Y1126D01*
D02*
X4868Y456D02*
X4868Y527D01*
D02*
X2369Y1126D02*
X2366Y1054D01*
D02*
X1069Y827D02*
X3368Y827D01*
D02*
X3368Y827D02*
X3468Y926D01*
D02*
X3468Y926D02*
X3769Y926D01*
D02*
X3769Y926D02*
X4170Y528D01*
D02*
X4170Y528D02*
X4668Y528D01*
D02*
X4668Y528D02*
X4668Y456D01*
D02*
X968Y926D02*
X1069Y827D01*
D02*
X968Y992D02*
X968Y926D01*
D02*
X5248Y1347D02*
X5282Y1313D01*
D02*
X4867Y1228D02*
X4942Y1227D01*
D02*
X4769Y1127D02*
X4867Y1228D01*
D02*
X4268Y1127D02*
X4769Y1127D01*
D02*
X4569Y1228D02*
X4742Y1227D01*
D02*
X4169Y1226D02*
X4569Y1228D01*
D02*
X4068Y1127D02*
X4169Y1226D01*
D02*
X4769Y1427D02*
X4769Y1353D01*
D02*
X4668Y1427D02*
X4769Y1427D01*
D02*
X4670Y1498D02*
X4668Y1427D01*
D02*
X4769Y1253D02*
X4769Y1301D01*
D02*
X4069Y1056D02*
X4068Y1127D01*
D02*
X4969Y1253D02*
X4969Y1301D01*
D02*
X4268Y1056D02*
X4268Y1127D01*
D02*
X4995Y1327D02*
X5250Y1327D01*
D02*
X5568Y826D02*
X5569Y1208D01*
D02*
X5268Y528D02*
X5568Y826D01*
D02*
X5268Y456D02*
X5268Y528D01*
D02*
X3767Y2027D02*
X3467Y1728D01*
D02*
X4067Y2027D02*
X3767Y2027D01*
D02*
X3467Y1728D02*
X3389Y1728D01*
D02*
X2988Y1727D02*
X3269Y1728D01*
D02*
X3370Y1528D02*
X3368Y1458D01*
D02*
X3370Y1627D02*
X3370Y1528D01*
D02*
X3269Y1728D02*
X3370Y1627D01*
D02*
X4170Y1927D02*
X4067Y2027D01*
D02*
X4170Y1856D02*
X4170Y1927D01*
D02*
X1469Y3327D02*
X1469Y3396D01*
D02*
X970Y3396D02*
X970Y3329D01*
D02*
X970Y3329D02*
X1469Y3327D01*
D02*
X2970Y3329D02*
X2469Y3329D01*
D02*
X2968Y3395D02*
X2970Y3329D01*
D02*
X2469Y3329D02*
X2468Y3395D01*
D02*
X2551Y3626D02*
X2087Y3626D01*
D02*
X2869Y3627D02*
X2867Y3458D01*
D02*
X2970Y3528D02*
X2968Y3458D01*
D02*
X2668Y3629D02*
X2869Y3627D01*
D02*
X2568Y3725D02*
X2668Y3629D01*
D02*
X2486Y3725D02*
X2568Y3725D01*
D02*
X3468Y3528D02*
X3068Y3528D01*
D02*
X3468Y3629D02*
X3068Y3626D01*
D02*
X3768Y3927D02*
X3468Y3629D01*
D02*
X3068Y3626D02*
X2970Y3528D01*
D02*
X3870Y3728D02*
X3669Y3726D01*
D02*
X4167Y3927D02*
X3768Y3927D01*
D02*
X3968Y3728D02*
X3870Y3728D01*
D02*
X4168Y3856D02*
X4167Y3927D01*
D02*
X3068Y3528D02*
X3068Y3458D01*
D02*
X3669Y3726D02*
X3468Y3528D01*
D02*
X3968Y3798D02*
X3968Y3728D01*
D02*
X3069Y3725D02*
X3350Y3728D01*
D02*
X2969Y3629D02*
X3069Y3725D01*
D02*
X3669Y3629D02*
X3468Y3427D01*
D02*
X3968Y3627D02*
X3669Y3629D01*
D02*
X4068Y3727D02*
X3968Y3627D01*
D02*
X3468Y3427D02*
X3398Y3427D01*
D02*
X2867Y3458D02*
X2869Y3627D01*
D02*
X2869Y3627D02*
X2969Y3629D01*
D02*
X4269Y3626D02*
X4868Y3626D01*
D02*
X4182Y3713D02*
X4269Y3626D01*
D02*
X4868Y3626D02*
X4868Y3556D01*
D02*
X4068Y3798D02*
X4068Y3727D01*
D02*
X2969Y3725D02*
X3054Y3812D01*
D02*
X2869Y3725D02*
X2969Y3725D01*
D02*
X2770Y3826D02*
X2869Y3725D01*
D02*
X2769Y3995D02*
X2770Y3826D01*
D02*
X3068Y4127D02*
X3068Y4058D01*
D02*
X2570Y4127D02*
X2070Y4127D01*
D02*
X2570Y4127D02*
X3068Y4127D01*
D02*
X2469Y3826D02*
X2770Y3826D01*
D02*
X2367Y3728D02*
X2469Y3826D01*
D02*
X2070Y4127D02*
X2070Y4058D01*
D02*
X1767Y3725D02*
X2268Y3725D01*
D02*
X1771Y3996D02*
X1767Y3725D01*
D02*
X2268Y3725D02*
X2270Y3995D01*
D02*
X2569Y4058D02*
X2570Y4127D01*
D02*
X2268Y3725D02*
X2367Y3728D01*
D02*
X2270Y3995D02*
X2268Y3725D01*
D02*
X2770Y3826D02*
X2769Y3995D01*
D02*
X2569Y4058D02*
X2570Y4127D01*
D02*
X2070Y4127D02*
X1569Y4127D01*
D02*
X1569Y4127D02*
X1068Y4127D01*
D02*
X1569Y4127D02*
X1570Y4058D01*
D02*
X1369Y3845D02*
X1369Y3927D01*
D02*
X1369Y3927D02*
X1370Y3996D01*
D02*
X1068Y4127D02*
X1070Y4058D01*
D02*
X1570Y4058D02*
X1569Y4127D01*
D02*
X1267Y3826D02*
X1369Y3728D01*
D02*
X1369Y3728D02*
X1767Y3725D01*
D02*
X1271Y3996D02*
X1267Y3826D01*
D02*
X1767Y3725D02*
X1771Y3996D01*
D02*
X2070Y4058D02*
X2070Y4127D01*
D02*
X1870Y3996D02*
X1870Y3845D01*
D02*
X2369Y3995D02*
X2367Y3845D01*
D02*
X2369Y3995D02*
X2367Y3845D01*
D02*
X2868Y3845D02*
X2868Y3995D01*
D02*
X2369Y3995D02*
X2367Y3845D01*
D02*
X2868Y3995D02*
X2868Y3845D01*
D02*
X1870Y3845D02*
X1870Y3996D01*
D02*
X3467Y3927D02*
X2970Y3927D01*
D02*
X3669Y4128D02*
X3467Y3927D01*
D02*
X5069Y3827D02*
X5067Y4028D01*
D02*
X5067Y4028D02*
X4970Y4128D01*
D02*
X4970Y4128D02*
X3669Y4128D01*
D02*
X2970Y3927D02*
X2969Y3996D01*
D02*
X3468Y3826D02*
X3087Y3826D01*
D02*
X3669Y4028D02*
X3468Y3826D01*
D02*
X4969Y3727D02*
X5069Y3827D01*
D02*
X4570Y3728D02*
X4969Y3727D01*
D02*
X4370Y3927D02*
X4269Y4028D01*
D02*
X4269Y4028D02*
X3669Y4028D01*
D02*
X4868Y3927D02*
X4370Y3927D01*
D02*
X4569Y3798D02*
X4570Y3728D01*
D02*
X4868Y3856D02*
X4868Y3927D01*
D02*
X3269Y1826D02*
X3188Y1827D01*
D02*
X3269Y1528D02*
X2768Y1527D01*
D02*
X3269Y1458D02*
X3269Y1528D01*
D02*
X2768Y1527D02*
X2768Y1458D01*
D02*
X4469Y3426D02*
X4469Y3498D01*
D02*
X4268Y3226D02*
X4469Y3426D01*
D02*
X1669Y3228D02*
X1770Y3127D01*
D02*
X1670Y3396D02*
X1669Y3228D01*
D02*
X3169Y3125D02*
X3267Y3227D01*
D02*
X3267Y3227D02*
X4268Y3226D01*
D02*
X1770Y3127D02*
X3169Y3125D01*
D02*
X4367Y3427D02*
X4368Y3498D01*
D02*
X3788Y3427D02*
X4367Y3427D01*
D02*
X3469Y3327D02*
X3554Y3414D01*
D02*
X2170Y3325D02*
X2268Y3228D01*
D02*
X2169Y3395D02*
X2170Y3325D01*
D02*
X3169Y3227D02*
X3267Y3329D01*
D02*
X3267Y3329D02*
X3469Y3327D01*
D02*
X2268Y3228D02*
X3169Y3227D01*
D02*
X967Y2328D02*
X467Y2328D01*
D02*
X467Y2328D02*
X468Y2396D01*
D02*
X968Y2396D02*
X967Y2328D01*
D02*
X4769Y3126D02*
X3267Y3125D01*
D02*
X3267Y3125D02*
X3269Y3058D01*
D02*
X3569Y2626D02*
X4251Y2629D01*
D02*
X3468Y2525D02*
X3569Y2626D01*
D02*
X3368Y2528D02*
X3468Y2525D01*
D02*
X3346Y2449D02*
X3281Y2514D01*
D02*
X3169Y2827D02*
X3068Y2726D01*
D02*
X2869Y2726D02*
X2782Y2640D01*
D02*
X3068Y2726D02*
X2869Y2726D01*
D02*
X3269Y2828D02*
X3169Y2827D01*
D02*
X2768Y2927D02*
X2869Y2927D01*
D02*
X2869Y2927D02*
X3049Y2927D01*
D02*
X2683Y2841D02*
X2768Y2927D01*
D02*
X2368Y1845D02*
X2369Y1996D01*
D02*
X2869Y1927D02*
X2869Y1846D01*
D02*
X2869Y1996D02*
X2869Y1927D01*
D02*
X1869Y1996D02*
X1870Y1845D01*
D02*
X4469Y1726D02*
X4470Y1798D01*
D02*
X5240Y1727D02*
X5069Y1728D01*
D02*
X5069Y1728D02*
X4469Y1726D01*
D02*
X1467Y2328D02*
X1468Y2396D01*
D02*
X967Y2328D02*
X1467Y2328D01*
D02*
X968Y2396D02*
X967Y2328D01*
D02*
X2870Y2328D02*
X3370Y2328D01*
D02*
X3370Y2328D02*
X3368Y2396D01*
D02*
X2868Y2396D02*
X2870Y2328D01*
D02*
X1269Y2526D02*
X769Y2526D01*
D02*
X769Y2526D02*
X769Y2458D01*
D02*
X1269Y2458D02*
X1269Y2526D01*
D02*
X2269Y2327D02*
X1768Y2327D01*
D02*
X1768Y2327D02*
X1768Y2396D01*
D02*
X4469Y2328D02*
X4469Y2498D01*
D02*
X4369Y2226D02*
X4469Y2328D01*
D02*
X4269Y2226D02*
X4369Y2226D01*
D02*
X4168Y2327D02*
X4269Y2226D01*
D02*
X3467Y2327D02*
X4168Y2327D01*
D02*
X3369Y2226D02*
X3467Y2327D01*
D02*
X1770Y2228D02*
X3369Y2226D01*
D02*
X1769Y2526D02*
X1269Y2526D01*
D02*
X1269Y2526D02*
X1269Y2458D01*
D02*
X1669Y2329D02*
X1770Y2228D01*
D02*
X1669Y2396D02*
X1669Y2329D01*
D02*
X1769Y2458D02*
X1769Y2526D01*
D02*
X3169Y2527D02*
X3247Y2449D01*
D02*
X2770Y2327D02*
X2269Y2327D01*
D02*
X2269Y2327D02*
X2269Y2396D01*
D02*
X2869Y2528D02*
X3169Y2527D01*
D02*
X2791Y2449D02*
X2869Y2528D01*
D02*
X2769Y2396D02*
X2770Y2327D01*
D02*
X2269Y2396D02*
X2269Y2327D01*
D02*
X1087Y2626D02*
X1549Y2626D01*
D02*
X669Y2626D02*
X1049Y2626D01*
D02*
X568Y2458D02*
X568Y2526D01*
D02*
X568Y2526D02*
X669Y2626D01*
D02*
X3069Y2127D02*
X3070Y2058D01*
D02*
X2570Y2058D02*
X2570Y2127D01*
D02*
X2570Y2127D02*
X3069Y2127D01*
D02*
X2570Y2127D02*
X2570Y2058D01*
D02*
X2070Y2058D02*
X2070Y2127D01*
D02*
X2070Y2127D02*
X2570Y2127D01*
D02*
X1570Y2127D02*
X2070Y2127D01*
D02*
X2070Y2127D02*
X2070Y2058D01*
D02*
X1570Y2058D02*
X1570Y2127D01*
D02*
X1570Y2127D02*
X1570Y2058D01*
D02*
X1070Y2058D02*
X1071Y2127D01*
D02*
X1071Y2127D02*
X1570Y2127D01*
D02*
X1071Y2127D02*
X1070Y2058D01*
D02*
X570Y2058D02*
X571Y2127D01*
D02*
X571Y2127D02*
X1071Y2127D01*
D02*
X2767Y2828D02*
X3068Y2827D01*
D02*
X2669Y2726D02*
X2767Y2828D01*
D02*
X2568Y2727D02*
X2669Y2726D01*
D02*
X3068Y2827D02*
X3169Y2927D01*
D02*
X2568Y2828D02*
X2568Y2727D01*
D02*
X3269Y2927D02*
X3270Y2996D01*
D02*
X3169Y2927D02*
X3269Y2927D01*
D02*
X2748Y3005D02*
X2568Y2828D01*
D02*
X868Y1728D02*
X770Y1826D01*
D02*
X770Y1826D02*
X770Y1996D01*
D02*
X1270Y1725D02*
X868Y1728D01*
D02*
X1767Y1725D02*
X2268Y1725D01*
D02*
X1767Y1725D02*
X1270Y1725D01*
D02*
X1270Y1725D02*
X1270Y1996D01*
D02*
X1770Y1996D02*
X1767Y1725D01*
D02*
X1270Y1996D02*
X1270Y1725D01*
D02*
X2769Y1725D02*
X2770Y1996D01*
D02*
X2270Y1996D02*
X2268Y1725D01*
D02*
X2268Y1725D02*
X2769Y1725D01*
D02*
X2268Y1725D02*
X2270Y1996D01*
D02*
X1770Y1996D02*
X1767Y1725D01*
D02*
X3069Y1926D02*
X3269Y1927D01*
D02*
X2869Y1728D02*
X3069Y1926D01*
D02*
X3269Y1927D02*
X3270Y1996D01*
D02*
X2770Y1996D02*
X2769Y1725D01*
D02*
X2769Y1725D02*
X2869Y1728D01*
D02*
X868Y1927D02*
X869Y1846D01*
D02*
X869Y1996D02*
X868Y1927D01*
D02*
X2368Y1845D02*
X2369Y1996D01*
D02*
X1870Y1845D02*
X1869Y1996D01*
D02*
X1369Y1996D02*
X1369Y1845D01*
D02*
X1369Y1845D02*
X1369Y1927D01*
D02*
X2869Y1927D02*
X2869Y1996D01*
D02*
X2869Y1846D02*
X2869Y1927D01*
D02*
X1369Y1927D02*
X1369Y1996D01*
D02*
X868Y2726D02*
X767Y2828D01*
D02*
X3370Y1927D02*
X3269Y1826D01*
D02*
X3369Y1996D02*
X3370Y1927D01*
D02*
X1270Y2727D02*
X1767Y2727D01*
D02*
X1270Y2996D02*
X1270Y2727D01*
D02*
X1270Y2727D02*
X868Y2726D01*
D02*
X767Y2828D02*
X770Y2996D01*
D02*
X1270Y2996D02*
X1270Y2727D01*
D02*
X1767Y2727D02*
X2268Y2727D01*
D02*
X1770Y2996D02*
X1767Y2727D01*
D02*
X1767Y2727D02*
X1770Y2996D01*
D02*
X869Y2846D02*
X868Y2926D01*
D02*
X868Y2926D02*
X869Y2996D01*
D02*
X1869Y2847D02*
X1869Y2996D01*
D02*
X1369Y2847D02*
X1369Y2996D01*
D02*
X1869Y2996D02*
X1869Y2847D01*
D02*
X1369Y2996D02*
X1369Y2847D01*
D02*
X2869Y2626D02*
X3068Y2628D01*
D02*
X3268Y2628D02*
X3368Y2528D01*
D02*
X3068Y2628D02*
X3268Y2628D01*
D02*
X2268Y2727D02*
X2270Y2996D01*
D02*
X1870Y2628D02*
X1587Y2626D01*
D02*
X2069Y2626D02*
X1870Y2628D01*
D02*
X2755Y2713D02*
X2668Y2627D01*
D02*
X3268Y2728D02*
X3188Y2726D01*
D02*
X3468Y2626D02*
X3368Y2628D01*
D02*
X3569Y2727D02*
X3468Y2626D01*
D02*
X3368Y2628D02*
X3268Y2728D01*
D02*
X4368Y2556D02*
X4368Y2626D01*
D02*
X4269Y2725D02*
X3569Y2727D01*
D02*
X2069Y2458D02*
X2069Y2626D01*
D02*
X2268Y2628D02*
X2169Y2528D01*
D02*
X2668Y2627D02*
X2268Y2628D01*
D02*
X2369Y2728D02*
X2568Y2727D01*
D02*
X2268Y2727D02*
X2369Y2728D01*
D02*
X2270Y2996D02*
X2268Y2727D01*
D02*
X2367Y2926D02*
X2368Y2846D01*
D02*
X2367Y2926D02*
X2368Y2996D01*
D02*
X2368Y2846D02*
X2367Y2926D01*
D02*
X2368Y2996D02*
X2367Y2926D01*
D02*
X2568Y2828D02*
X2748Y3005D01*
D02*
X2568Y2727D02*
X2568Y2828D01*
D02*
X2169Y2458D02*
X2169Y2528D01*
D02*
X2368Y2528D02*
X2368Y2458D01*
D02*
X2691Y2449D02*
X2869Y2626D01*
D02*
X2069Y2607D02*
X2069Y2458D01*
D02*
X3355Y2740D02*
X3269Y2828D01*
D02*
X2649Y2528D02*
X2368Y2528D01*
D02*
X2768Y2927D02*
X2683Y2841D01*
D02*
X2869Y2927D02*
X2768Y2927D01*
D02*
X2869Y2996D02*
X2869Y2927D01*
D02*
X2768Y2927D02*
X2683Y2841D01*
D02*
X2869Y2927D02*
X2768Y2927D01*
D02*
X2869Y2996D02*
X2869Y2927D01*
D02*
X5267Y2526D02*
X4997Y2527D01*
D02*
X5366Y2426D02*
X5267Y2526D01*
D02*
X5268Y1527D02*
X5369Y1628D01*
D02*
X5366Y2625D02*
X4668Y2626D01*
D02*
X5470Y2526D02*
X5366Y2625D01*
D02*
X5369Y1426D02*
X5470Y1527D01*
D02*
X4669Y1498D02*
X4668Y1428D01*
D02*
X5169Y1428D02*
X5369Y1426D01*
D02*
X4668Y1428D02*
X5169Y1428D01*
D02*
X5567Y1426D02*
X5470Y1327D01*
D02*
X5470Y1327D02*
X5297Y1327D01*
D02*
X4999Y1527D02*
X5268Y1527D01*
D02*
X3769Y1326D02*
X3869Y1426D01*
D02*
X3469Y1326D02*
X3769Y1326D01*
D02*
X3368Y1226D02*
X3469Y1326D01*
D02*
X2568Y1228D02*
X3368Y1226D01*
D02*
X2468Y1328D02*
X2568Y1228D01*
D02*
X2168Y1328D02*
X2468Y1328D01*
D02*
X2169Y1396D02*
X2168Y1328D01*
D02*
X4370Y1428D02*
X4370Y1498D01*
D02*
X3869Y1426D02*
X4370Y1428D01*
D02*
X3869Y1326D02*
X4370Y1328D01*
D02*
X3769Y1226D02*
X3869Y1326D01*
D02*
X3469Y1226D02*
X3769Y1226D01*
D02*
X3368Y1126D02*
X3469Y1226D01*
D02*
X2568Y1128D02*
X3368Y1126D01*
D02*
X2468Y1228D02*
X2568Y1128D01*
D02*
X1768Y1228D02*
X2468Y1228D01*
D02*
X1668Y1328D02*
X1768Y1228D01*
D02*
X1669Y1396D02*
X1668Y1328D01*
D02*
X4470Y1428D02*
X4470Y1498D01*
D02*
X4370Y1328D02*
X4470Y1428D01*
D02*
X3569Y1426D02*
X3770Y1628D01*
D02*
X3469Y1426D02*
X3569Y1426D01*
D02*
X3368Y1326D02*
X3469Y1426D01*
D02*
X3770Y1628D02*
X4069Y1628D01*
D02*
X4069Y1628D02*
X4871Y1628D01*
D02*
X2668Y1328D02*
X3368Y1326D01*
D02*
X2669Y1396D02*
X2668Y1328D01*
D02*
X4871Y1628D02*
X4870Y1556D01*
D02*
X4668Y2128D02*
X4755Y2040D01*
D02*
X3467Y2226D02*
X4168Y2226D01*
D02*
X3369Y2128D02*
X3467Y2226D01*
D02*
X4168Y2226D02*
X4269Y2128D01*
D02*
X4269Y2128D02*
X4668Y2128D01*
D02*
X3069Y2128D02*
X3369Y2128D01*
D02*
X3070Y2058D02*
X3069Y2128D01*
D02*
X3568Y2128D02*
X4169Y2128D01*
D02*
X3467Y2027D02*
X3568Y2128D01*
D02*
X4169Y2128D02*
X4269Y2027D01*
D02*
X4269Y2027D02*
X4550Y2027D01*
D02*
X3400Y2027D02*
X3467Y2027D01*
D02*
X3569Y1526D02*
X3770Y1726D01*
D02*
X4069Y1727D02*
X4070Y1798D01*
D02*
X3368Y1526D02*
X3569Y1526D01*
D02*
X3368Y1458D02*
X3368Y1526D01*
D02*
X3770Y1726D02*
X4069Y1727D01*
D02*
X670Y1627D02*
X1051Y1627D01*
D02*
X1271Y1527D02*
X770Y1527D01*
D02*
X770Y1527D02*
X769Y1458D01*
D02*
X1269Y1458D02*
X1271Y1527D01*
D02*
X970Y1327D02*
X470Y1327D01*
D02*
X569Y1458D02*
X570Y1527D01*
D02*
X570Y1527D02*
X670Y1627D01*
D02*
X1770Y1527D02*
X1271Y1527D01*
D02*
X1769Y1458D02*
X1770Y1527D01*
D02*
X1271Y1527D02*
X1269Y1458D01*
D02*
X1469Y1327D02*
X1469Y1396D01*
D02*
X970Y1327D02*
X1469Y1327D01*
D02*
X969Y1396D02*
X970Y1327D01*
D02*
X470Y1327D02*
X469Y1396D01*
D02*
X969Y1396D02*
X970Y1327D01*
D02*
X2051Y1627D02*
X1588Y1627D01*
D02*
X1550Y1627D02*
X1089Y1627D01*
D02*
X2768Y1527D02*
X2270Y1527D01*
D02*
X2768Y1458D02*
X2768Y1527D01*
D02*
X2270Y1527D02*
X2269Y1458D01*
D02*
X2550Y1627D02*
X2089Y1627D01*
D02*
X2270Y1527D02*
X1770Y1527D01*
D02*
X2269Y1458D02*
X2270Y1527D01*
D02*
X1770Y1527D02*
X1769Y1458D01*
D02*
X3050Y1627D02*
X2588Y1627D01*
D02*
X3769Y1026D02*
X3469Y1026D01*
D02*
X4169Y628D02*
X3769Y1026D01*
D02*
X4670Y628D02*
X4169Y628D01*
D02*
X4769Y528D02*
X4670Y628D01*
D02*
X3368Y926D02*
X1670Y926D01*
D02*
X3469Y1026D02*
X3368Y926D01*
D02*
X4769Y456D02*
X4769Y528D01*
D02*
X1670Y926D02*
X1667Y984D01*
D02*
X5369Y1628D02*
X5366Y2427D01*
D02*
X5569Y2727D02*
X5567Y1426D01*
D02*
X4668Y2626D02*
X4668Y2556D01*
D02*
X5069Y3329D02*
X5067Y2626D01*
D02*
X4968Y3426D02*
X5069Y3329D01*
D02*
X4668Y3429D02*
X4968Y3426D01*
D02*
X5067Y2626D02*
X4668Y2626D01*
D02*
X4668Y3498D02*
X4668Y3429D01*
D02*
X4668Y2626D02*
X4668Y2556D01*
D02*
X4368Y2725D02*
X4368Y2798D01*
D02*
X4997Y2527D02*
X5067Y2527D01*
D02*
X5067Y2527D02*
X5250Y2527D01*
D02*
X4949Y2725D02*
X4368Y2725D01*
D02*
X5289Y2725D02*
X5569Y2727D01*
D02*
X5569Y2727D02*
X5289Y2725D01*
D02*
X4949Y2725D02*
X4368Y2725D01*
D02*
X5567Y3228D02*
X5569Y2727D01*
D02*
X4368Y2725D02*
X4368Y2798D01*
D02*
X5286Y2704D02*
X5258Y2740D01*
D02*
X4368Y2626D02*
X4269Y2725D01*
D02*
X5470Y1527D02*
X5470Y2526D01*
D02*
X5470Y3325D02*
X5567Y3228D01*
D02*
X5288Y3327D02*
X5470Y3325D01*
D02*
X3969Y2927D02*
X3669Y2928D01*
D02*
X3669Y2928D02*
X3468Y2727D01*
D02*
X3969Y2856D02*
X3969Y2927D01*
D02*
X3468Y2727D02*
X3387Y2727D01*
D02*
X4548Y3025D02*
X3400Y3027D01*
D02*
X1767Y3527D02*
X1270Y3527D01*
D02*
X1270Y3527D02*
X1270Y3458D01*
D02*
X1769Y3458D02*
X1767Y3527D01*
D02*
X2269Y3527D02*
X1767Y3527D01*
D02*
X2269Y3458D02*
X2269Y3527D01*
D02*
X1767Y3527D02*
X1769Y3458D01*
D02*
X2767Y3527D02*
X2269Y3527D01*
D02*
X2767Y3458D02*
X2767Y3527D01*
D02*
X2269Y3527D02*
X2269Y3458D01*
D02*
X1170Y3626D02*
X1551Y3626D01*
D02*
X1069Y3458D02*
X1069Y3527D01*
D02*
X1069Y3527D02*
X1170Y3626D01*
D02*
X2049Y3626D02*
X1589Y3626D01*
G36*
X286Y4062D02*
X286Y4061D01*
X280Y4061D01*
X280Y4060D01*
X277Y4060D01*
X277Y4058D01*
X273Y4058D01*
X273Y4057D01*
X270Y4057D01*
X270Y4056D01*
X267Y4056D01*
X267Y4055D01*
X265Y4055D01*
X265Y4054D01*
X263Y4054D01*
X263Y4053D01*
X261Y4053D01*
X261Y4052D01*
X259Y4052D01*
X259Y4050D01*
X257Y4050D01*
X257Y4049D01*
X256Y4049D01*
X256Y4048D01*
X254Y4048D01*
X254Y4047D01*
X253Y4047D01*
X253Y4046D01*
X252Y4046D01*
X252Y4045D01*
X250Y4045D01*
X250Y4044D01*
X249Y4044D01*
X249Y4042D01*
X248Y4042D01*
X248Y4041D01*
X247Y4041D01*
X247Y4040D01*
X246Y4040D01*
X246Y4039D01*
X245Y4039D01*
X245Y4038D01*
X244Y4038D01*
X244Y4037D01*
X242Y4037D01*
X242Y4036D01*
X241Y4036D01*
X241Y4035D01*
X240Y4035D01*
X240Y4032D01*
X239Y4032D01*
X239Y4031D01*
X238Y4031D01*
X238Y4029D01*
X237Y4029D01*
X237Y4028D01*
X236Y4028D01*
X236Y4025D01*
X234Y4025D01*
X234Y4023D01*
X233Y4023D01*
X233Y4021D01*
X232Y4021D01*
X232Y4019D01*
X231Y4019D01*
X231Y4015D01*
X230Y4015D01*
X230Y4012D01*
X229Y4012D01*
X229Y4008D01*
X228Y4008D01*
X228Y4003D01*
X226Y4003D01*
X226Y3870D01*
X683Y3870D01*
X683Y3868D01*
X687Y3868D01*
X687Y3867D01*
X691Y3867D01*
X691Y3866D01*
X694Y3866D01*
X694Y3865D01*
X696Y3865D01*
X696Y3864D01*
X698Y3864D01*
X698Y3863D01*
X700Y3863D01*
X700Y3862D01*
X701Y3862D01*
X701Y3860D01*
X703Y3860D01*
X703Y3859D01*
X704Y3859D01*
X704Y3858D01*
X705Y3858D01*
X705Y3857D01*
X707Y3857D01*
X707Y3856D01*
X708Y3856D01*
X708Y3855D01*
X709Y3855D01*
X709Y3854D01*
X710Y3854D01*
X710Y3852D01*
X711Y3852D01*
X711Y3851D01*
X712Y3851D01*
X712Y3850D01*
X713Y3850D01*
X713Y3848D01*
X715Y3848D01*
X715Y3847D01*
X716Y3847D01*
X716Y3845D01*
X717Y3845D01*
X717Y3842D01*
X718Y3842D01*
X718Y3840D01*
X719Y3840D01*
X719Y3837D01*
X720Y3837D01*
X720Y3832D01*
X721Y3832D01*
X721Y3825D01*
X723Y3825D01*
X723Y3817D01*
X721Y3817D01*
X721Y3810D01*
X720Y3810D01*
X720Y3806D01*
X719Y3806D01*
X719Y3802D01*
X718Y3802D01*
X718Y3800D01*
X717Y3800D01*
X717Y3798D01*
X716Y3798D01*
X716Y3796D01*
X715Y3796D01*
X715Y3794D01*
X713Y3794D01*
X713Y3792D01*
X712Y3792D01*
X712Y3791D01*
X711Y3791D01*
X711Y3790D01*
X710Y3790D01*
X710Y3789D01*
X709Y3789D01*
X709Y3788D01*
X708Y3788D01*
X708Y3786D01*
X707Y3786D01*
X707Y3785D01*
X705Y3785D01*
X705Y3784D01*
X704Y3784D01*
X704Y3783D01*
X703Y3783D01*
X703Y3782D01*
X701Y3782D01*
X701Y3781D01*
X700Y3781D01*
X700Y3780D01*
X698Y3780D01*
X698Y3779D01*
X696Y3779D01*
X696Y3777D01*
X694Y3777D01*
X694Y3776D01*
X691Y3776D01*
X691Y3775D01*
X690Y3775D01*
X690Y3657D01*
X558Y3657D01*
X558Y3493D01*
X736Y3493D01*
X736Y3494D01*
X742Y3494D01*
X742Y3495D01*
X745Y3495D01*
X745Y3496D01*
X749Y3496D01*
X749Y3497D01*
X752Y3497D01*
X752Y3499D01*
X754Y3499D01*
X754Y3500D01*
X757Y3500D01*
X757Y3501D01*
X759Y3501D01*
X759Y3502D01*
X761Y3502D01*
X761Y3503D01*
X762Y3503D01*
X762Y3504D01*
X765Y3504D01*
X765Y3505D01*
X766Y3505D01*
X766Y3507D01*
X768Y3507D01*
X768Y3508D01*
X769Y3508D01*
X769Y3509D01*
X770Y3509D01*
X770Y3510D01*
X771Y3510D01*
X771Y3511D01*
X773Y3511D01*
X773Y3512D01*
X774Y3512D01*
X774Y3513D01*
X775Y3513D01*
X775Y3515D01*
X776Y3515D01*
X776Y3516D01*
X777Y3516D01*
X777Y3517D01*
X778Y3517D01*
X778Y3518D01*
X779Y3518D01*
X779Y3519D01*
X781Y3519D01*
X781Y3520D01*
X782Y3520D01*
X782Y3523D01*
X783Y3523D01*
X783Y3524D01*
X784Y3524D01*
X784Y3526D01*
X785Y3526D01*
X785Y3527D01*
X786Y3527D01*
X786Y3529D01*
X787Y3529D01*
X787Y3532D01*
X789Y3532D01*
X789Y3534D01*
X790Y3534D01*
X790Y3536D01*
X791Y3536D01*
X791Y3540D01*
X792Y3540D01*
X792Y3543D01*
X793Y3543D01*
X793Y3546D01*
X794Y3546D01*
X794Y3552D01*
X795Y3552D01*
X795Y4003D01*
X794Y4003D01*
X794Y4008D01*
X793Y4008D01*
X793Y4012D01*
X792Y4012D01*
X792Y4015D01*
X791Y4015D01*
X791Y4019D01*
X790Y4019D01*
X790Y4021D01*
X789Y4021D01*
X789Y4023D01*
X787Y4023D01*
X787Y4025D01*
X786Y4025D01*
X786Y4028D01*
X785Y4028D01*
X785Y4029D01*
X784Y4029D01*
X784Y4031D01*
X783Y4031D01*
X783Y4032D01*
X782Y4032D01*
X782Y4035D01*
X781Y4035D01*
X781Y4036D01*
X779Y4036D01*
X779Y4037D01*
X778Y4037D01*
X778Y4038D01*
X777Y4038D01*
X777Y4039D01*
X776Y4039D01*
X776Y4040D01*
X775Y4040D01*
X775Y4041D01*
X774Y4041D01*
X774Y4042D01*
X773Y4042D01*
X773Y4044D01*
X771Y4044D01*
X771Y4045D01*
X770Y4045D01*
X770Y4046D01*
X769Y4046D01*
X769Y4047D01*
X768Y4047D01*
X768Y4048D01*
X766Y4048D01*
X766Y4049D01*
X765Y4049D01*
X765Y4050D01*
X762Y4050D01*
X762Y4052D01*
X761Y4052D01*
X761Y4053D01*
X759Y4053D01*
X759Y4054D01*
X757Y4054D01*
X757Y4055D01*
X754Y4055D01*
X754Y4056D01*
X752Y4056D01*
X752Y4057D01*
X749Y4057D01*
X749Y4058D01*
X745Y4058D01*
X745Y4060D01*
X742Y4060D01*
X742Y4061D01*
X736Y4061D01*
X736Y4062D01*
X286Y4062D01*
G37*
D02*
G36*
X226Y3870D02*
X226Y3552D01*
X228Y3552D01*
X228Y3546D01*
X229Y3546D01*
X229Y3543D01*
X230Y3543D01*
X230Y3540D01*
X231Y3540D01*
X231Y3536D01*
X232Y3536D01*
X232Y3534D01*
X233Y3534D01*
X233Y3532D01*
X234Y3532D01*
X234Y3529D01*
X236Y3529D01*
X236Y3527D01*
X237Y3527D01*
X237Y3526D01*
X238Y3526D01*
X238Y3524D01*
X239Y3524D01*
X239Y3523D01*
X240Y3523D01*
X240Y3520D01*
X241Y3520D01*
X241Y3519D01*
X242Y3519D01*
X242Y3518D01*
X244Y3518D01*
X244Y3517D01*
X245Y3517D01*
X245Y3516D01*
X246Y3516D01*
X246Y3515D01*
X247Y3515D01*
X247Y3513D01*
X248Y3513D01*
X248Y3512D01*
X249Y3512D01*
X249Y3511D01*
X250Y3511D01*
X250Y3510D01*
X252Y3510D01*
X252Y3509D01*
X253Y3509D01*
X253Y3508D01*
X254Y3508D01*
X254Y3507D01*
X256Y3507D01*
X256Y3505D01*
X257Y3505D01*
X257Y3504D01*
X259Y3504D01*
X259Y3503D01*
X261Y3503D01*
X261Y3502D01*
X263Y3502D01*
X263Y3501D01*
X265Y3501D01*
X265Y3500D01*
X267Y3500D01*
X267Y3499D01*
X270Y3499D01*
X270Y3497D01*
X273Y3497D01*
X273Y3496D01*
X277Y3496D01*
X277Y3495D01*
X280Y3495D01*
X280Y3494D01*
X286Y3494D01*
X286Y3493D01*
X460Y3493D01*
X460Y3657D01*
X329Y3657D01*
X329Y3775D01*
X328Y3775D01*
X328Y3776D01*
X324Y3776D01*
X324Y3777D01*
X322Y3777D01*
X322Y3779D01*
X321Y3779D01*
X321Y3780D01*
X319Y3780D01*
X319Y3781D01*
X316Y3781D01*
X316Y3782D01*
X315Y3782D01*
X315Y3783D01*
X314Y3783D01*
X314Y3784D01*
X313Y3784D01*
X313Y3785D01*
X311Y3785D01*
X311Y3786D01*
X310Y3786D01*
X310Y3789D01*
X308Y3789D01*
X308Y3790D01*
X307Y3790D01*
X307Y3791D01*
X306Y3791D01*
X306Y3792D01*
X305Y3792D01*
X305Y3794D01*
X304Y3794D01*
X304Y3796D01*
X303Y3796D01*
X303Y3798D01*
X302Y3798D01*
X302Y3800D01*
X300Y3800D01*
X300Y3802D01*
X299Y3802D01*
X299Y3806D01*
X298Y3806D01*
X298Y3810D01*
X297Y3810D01*
X297Y3832D01*
X298Y3832D01*
X298Y3835D01*
X299Y3835D01*
X299Y3839D01*
X300Y3839D01*
X300Y3841D01*
X302Y3841D01*
X302Y3845D01*
X303Y3845D01*
X303Y3846D01*
X304Y3846D01*
X304Y3848D01*
X305Y3848D01*
X305Y3849D01*
X306Y3849D01*
X306Y3851D01*
X307Y3851D01*
X307Y3852D01*
X308Y3852D01*
X308Y3854D01*
X310Y3854D01*
X310Y3855D01*
X311Y3855D01*
X311Y3856D01*
X312Y3856D01*
X312Y3857D01*
X313Y3857D01*
X313Y3858D01*
X314Y3858D01*
X314Y3859D01*
X315Y3859D01*
X315Y3860D01*
X318Y3860D01*
X318Y3862D01*
X319Y3862D01*
X319Y3863D01*
X321Y3863D01*
X321Y3864D01*
X323Y3864D01*
X323Y3865D01*
X325Y3865D01*
X325Y3866D01*
X328Y3866D01*
X328Y3867D01*
X331Y3867D01*
X331Y3868D01*
X336Y3868D01*
X336Y3870D01*
X226Y3870D01*
G37*
D02*
G36*
X355Y3870D02*
X355Y3868D01*
X360Y3868D01*
X360Y3867D01*
X363Y3867D01*
X363Y3866D01*
X365Y3866D01*
X365Y3865D01*
X368Y3865D01*
X368Y3864D01*
X370Y3864D01*
X370Y3863D01*
X372Y3863D01*
X372Y3862D01*
X373Y3862D01*
X373Y3860D01*
X374Y3860D01*
X374Y3859D01*
X377Y3859D01*
X377Y3858D01*
X378Y3858D01*
X378Y3857D01*
X379Y3857D01*
X379Y3856D01*
X380Y3856D01*
X380Y3855D01*
X381Y3855D01*
X381Y3854D01*
X382Y3854D01*
X382Y3852D01*
X384Y3852D01*
X384Y3850D01*
X385Y3850D01*
X385Y3849D01*
X386Y3849D01*
X386Y3847D01*
X387Y3847D01*
X387Y3846D01*
X388Y3846D01*
X388Y3843D01*
X389Y3843D01*
X389Y3841D01*
X390Y3841D01*
X390Y3838D01*
X391Y3838D01*
X391Y3834D01*
X393Y3834D01*
X393Y3829D01*
X394Y3829D01*
X394Y3814D01*
X393Y3814D01*
X393Y3808D01*
X391Y3808D01*
X391Y3805D01*
X390Y3805D01*
X390Y3802D01*
X389Y3802D01*
X389Y3799D01*
X388Y3799D01*
X388Y3798D01*
X387Y3798D01*
X387Y3796D01*
X386Y3796D01*
X386Y3793D01*
X385Y3793D01*
X385Y3792D01*
X384Y3792D01*
X384Y3791D01*
X382Y3791D01*
X382Y3790D01*
X381Y3790D01*
X381Y3788D01*
X380Y3788D01*
X380Y3786D01*
X379Y3786D01*
X379Y3785D01*
X377Y3785D01*
X377Y3784D01*
X376Y3784D01*
X376Y3783D01*
X374Y3783D01*
X374Y3782D01*
X373Y3782D01*
X373Y3781D01*
X371Y3781D01*
X371Y3780D01*
X370Y3780D01*
X370Y3779D01*
X368Y3779D01*
X368Y3777D01*
X365Y3777D01*
X365Y3776D01*
X363Y3776D01*
X363Y3775D01*
X361Y3775D01*
X361Y3689D01*
X460Y3689D01*
X460Y3775D01*
X459Y3775D01*
X459Y3776D01*
X455Y3776D01*
X455Y3777D01*
X453Y3777D01*
X453Y3779D01*
X452Y3779D01*
X452Y3780D01*
X449Y3780D01*
X449Y3781D01*
X447Y3781D01*
X447Y3782D01*
X446Y3782D01*
X446Y3783D01*
X445Y3783D01*
X445Y3784D01*
X444Y3784D01*
X444Y3785D01*
X443Y3785D01*
X443Y3786D01*
X440Y3786D01*
X440Y3789D01*
X439Y3789D01*
X439Y3790D01*
X438Y3790D01*
X438Y3791D01*
X437Y3791D01*
X437Y3792D01*
X436Y3792D01*
X436Y3794D01*
X435Y3794D01*
X435Y3796D01*
X434Y3796D01*
X434Y3798D01*
X432Y3798D01*
X432Y3800D01*
X431Y3800D01*
X431Y3804D01*
X430Y3804D01*
X430Y3807D01*
X429Y3807D01*
X429Y3812D01*
X428Y3812D01*
X428Y3831D01*
X429Y3831D01*
X429Y3835D01*
X430Y3835D01*
X430Y3839D01*
X431Y3839D01*
X431Y3841D01*
X432Y3841D01*
X432Y3843D01*
X434Y3843D01*
X434Y3846D01*
X435Y3846D01*
X435Y3848D01*
X436Y3848D01*
X436Y3849D01*
X437Y3849D01*
X437Y3850D01*
X438Y3850D01*
X438Y3852D01*
X439Y3852D01*
X439Y3854D01*
X440Y3854D01*
X440Y3855D01*
X442Y3855D01*
X442Y3856D01*
X443Y3856D01*
X443Y3857D01*
X444Y3857D01*
X444Y3858D01*
X445Y3858D01*
X445Y3859D01*
X447Y3859D01*
X447Y3860D01*
X448Y3860D01*
X448Y3862D01*
X449Y3862D01*
X449Y3863D01*
X452Y3863D01*
X452Y3864D01*
X454Y3864D01*
X454Y3865D01*
X456Y3865D01*
X456Y3866D01*
X459Y3866D01*
X459Y3867D01*
X462Y3867D01*
X462Y3868D01*
X467Y3868D01*
X467Y3870D01*
X355Y3870D01*
G37*
D02*
G36*
X486Y3870D02*
X486Y3868D01*
X490Y3868D01*
X490Y3867D01*
X494Y3867D01*
X494Y3866D01*
X496Y3866D01*
X496Y3865D01*
X498Y3865D01*
X498Y3864D01*
X501Y3864D01*
X501Y3863D01*
X503Y3863D01*
X503Y3862D01*
X504Y3862D01*
X504Y3860D01*
X506Y3860D01*
X506Y3859D01*
X508Y3859D01*
X508Y3858D01*
X509Y3858D01*
X509Y3857D01*
X510Y3857D01*
X510Y3856D01*
X511Y3856D01*
X511Y3855D01*
X512Y3855D01*
X512Y3854D01*
X513Y3854D01*
X513Y3852D01*
X514Y3852D01*
X514Y3851D01*
X515Y3851D01*
X515Y3849D01*
X517Y3849D01*
X517Y3848D01*
X518Y3848D01*
X518Y3846D01*
X519Y3846D01*
X519Y3843D01*
X520Y3843D01*
X520Y3841D01*
X521Y3841D01*
X521Y3839D01*
X522Y3839D01*
X522Y3835D01*
X523Y3835D01*
X523Y3831D01*
X525Y3831D01*
X525Y3813D01*
X523Y3813D01*
X523Y3808D01*
X522Y3808D01*
X522Y3805D01*
X521Y3805D01*
X521Y3801D01*
X520Y3801D01*
X520Y3799D01*
X519Y3799D01*
X519Y3797D01*
X518Y3797D01*
X518Y3796D01*
X517Y3796D01*
X517Y3793D01*
X515Y3793D01*
X515Y3792D01*
X514Y3792D01*
X514Y3791D01*
X513Y3791D01*
X513Y3789D01*
X512Y3789D01*
X512Y3788D01*
X511Y3788D01*
X511Y3786D01*
X510Y3786D01*
X510Y3785D01*
X509Y3785D01*
X509Y3784D01*
X506Y3784D01*
X506Y3783D01*
X505Y3783D01*
X505Y3782D01*
X504Y3782D01*
X504Y3781D01*
X502Y3781D01*
X502Y3780D01*
X501Y3780D01*
X501Y3779D01*
X498Y3779D01*
X498Y3777D01*
X496Y3777D01*
X496Y3776D01*
X494Y3776D01*
X494Y3775D01*
X492Y3775D01*
X492Y3493D01*
X526Y3493D01*
X526Y3689D01*
X658Y3689D01*
X658Y3775D01*
X657Y3775D01*
X657Y3776D01*
X653Y3776D01*
X653Y3777D01*
X651Y3777D01*
X651Y3779D01*
X649Y3779D01*
X649Y3780D01*
X647Y3780D01*
X647Y3781D01*
X645Y3781D01*
X645Y3782D01*
X644Y3782D01*
X644Y3783D01*
X642Y3783D01*
X642Y3784D01*
X641Y3784D01*
X641Y3785D01*
X639Y3785D01*
X639Y3786D01*
X638Y3786D01*
X638Y3788D01*
X637Y3788D01*
X637Y3789D01*
X636Y3789D01*
X636Y3790D01*
X635Y3790D01*
X635Y3792D01*
X634Y3792D01*
X634Y3793D01*
X633Y3793D01*
X633Y3796D01*
X632Y3796D01*
X632Y3797D01*
X630Y3797D01*
X630Y3799D01*
X629Y3799D01*
X629Y3801D01*
X628Y3801D01*
X628Y3805D01*
X627Y3805D01*
X627Y3808D01*
X626Y3808D01*
X626Y3815D01*
X625Y3815D01*
X625Y3827D01*
X626Y3827D01*
X626Y3833D01*
X627Y3833D01*
X627Y3838D01*
X628Y3838D01*
X628Y3840D01*
X629Y3840D01*
X629Y3842D01*
X630Y3842D01*
X630Y3845D01*
X632Y3845D01*
X632Y3847D01*
X633Y3847D01*
X633Y3849D01*
X634Y3849D01*
X634Y3850D01*
X635Y3850D01*
X635Y3851D01*
X636Y3851D01*
X636Y3854D01*
X637Y3854D01*
X637Y3855D01*
X638Y3855D01*
X638Y3856D01*
X639Y3856D01*
X639Y3857D01*
X641Y3857D01*
X641Y3858D01*
X642Y3858D01*
X642Y3859D01*
X644Y3859D01*
X644Y3860D01*
X645Y3860D01*
X645Y3862D01*
X647Y3862D01*
X647Y3863D01*
X649Y3863D01*
X649Y3864D01*
X651Y3864D01*
X651Y3865D01*
X653Y3865D01*
X653Y3866D01*
X655Y3866D01*
X655Y3867D01*
X659Y3867D01*
X659Y3868D01*
X663Y3868D01*
X663Y3870D01*
X486Y3870D01*
G37*
D02*
G36*
X340Y3838D02*
X340Y3837D01*
X337Y3837D01*
X337Y3835D01*
X336Y3835D01*
X336Y3834D01*
X335Y3834D01*
X335Y3833D01*
X333Y3833D01*
X333Y3832D01*
X332Y3832D01*
X332Y3831D01*
X331Y3831D01*
X331Y3830D01*
X330Y3830D01*
X330Y3826D01*
X329Y3826D01*
X329Y3816D01*
X330Y3816D01*
X330Y3813D01*
X331Y3813D01*
X331Y3812D01*
X332Y3812D01*
X332Y3810D01*
X333Y3810D01*
X333Y3809D01*
X335Y3809D01*
X335Y3808D01*
X336Y3808D01*
X336Y3807D01*
X337Y3807D01*
X337Y3806D01*
X340Y3806D01*
X340Y3805D01*
X351Y3805D01*
X351Y3806D01*
X353Y3806D01*
X353Y3807D01*
X355Y3807D01*
X355Y3808D01*
X356Y3808D01*
X356Y3809D01*
X357Y3809D01*
X357Y3810D01*
X358Y3810D01*
X358Y3812D01*
X360Y3812D01*
X360Y3814D01*
X361Y3814D01*
X361Y3816D01*
X362Y3816D01*
X362Y3826D01*
X361Y3826D01*
X361Y3829D01*
X360Y3829D01*
X360Y3831D01*
X358Y3831D01*
X358Y3832D01*
X357Y3832D01*
X357Y3833D01*
X356Y3833D01*
X356Y3834D01*
X355Y3834D01*
X355Y3835D01*
X353Y3835D01*
X353Y3837D01*
X351Y3837D01*
X351Y3838D01*
X340Y3838D01*
G37*
D02*
G36*
X471Y3838D02*
X471Y3837D01*
X469Y3837D01*
X469Y3835D01*
X467Y3835D01*
X467Y3834D01*
X465Y3834D01*
X465Y3833D01*
X464Y3833D01*
X464Y3832D01*
X463Y3832D01*
X463Y3831D01*
X462Y3831D01*
X462Y3829D01*
X461Y3829D01*
X461Y3825D01*
X460Y3825D01*
X460Y3817D01*
X461Y3817D01*
X461Y3814D01*
X462Y3814D01*
X462Y3812D01*
X463Y3812D01*
X463Y3810D01*
X464Y3810D01*
X464Y3809D01*
X465Y3809D01*
X465Y3808D01*
X467Y3808D01*
X467Y3807D01*
X469Y3807D01*
X469Y3806D01*
X471Y3806D01*
X471Y3805D01*
X482Y3805D01*
X482Y3806D01*
X485Y3806D01*
X485Y3807D01*
X486Y3807D01*
X486Y3808D01*
X488Y3808D01*
X488Y3809D01*
X489Y3809D01*
X489Y3810D01*
X490Y3810D01*
X490Y3813D01*
X492Y3813D01*
X492Y3815D01*
X493Y3815D01*
X493Y3819D01*
X494Y3819D01*
X494Y3823D01*
X493Y3823D01*
X493Y3827D01*
X492Y3827D01*
X492Y3830D01*
X490Y3830D01*
X490Y3832D01*
X489Y3832D01*
X489Y3833D01*
X488Y3833D01*
X488Y3834D01*
X486Y3834D01*
X486Y3835D01*
X485Y3835D01*
X485Y3837D01*
X481Y3837D01*
X481Y3838D01*
X471Y3838D01*
G37*
D02*
G36*
X668Y3838D02*
X668Y3837D01*
X666Y3837D01*
X666Y3835D01*
X663Y3835D01*
X663Y3834D01*
X662Y3834D01*
X662Y3833D01*
X661Y3833D01*
X661Y3832D01*
X660Y3832D01*
X660Y3831D01*
X659Y3831D01*
X659Y3829D01*
X658Y3829D01*
X658Y3825D01*
X657Y3825D01*
X657Y3817D01*
X658Y3817D01*
X658Y3814D01*
X659Y3814D01*
X659Y3812D01*
X660Y3812D01*
X660Y3810D01*
X661Y3810D01*
X661Y3809D01*
X662Y3809D01*
X662Y3808D01*
X663Y3808D01*
X663Y3807D01*
X666Y3807D01*
X666Y3806D01*
X668Y3806D01*
X668Y3805D01*
X679Y3805D01*
X679Y3806D01*
X682Y3806D01*
X682Y3807D01*
X684Y3807D01*
X684Y3808D01*
X685Y3808D01*
X685Y3809D01*
X686Y3809D01*
X686Y3810D01*
X687Y3810D01*
X687Y3813D01*
X688Y3813D01*
X688Y3815D01*
X690Y3815D01*
X690Y3818D01*
X691Y3818D01*
X691Y3824D01*
X690Y3824D01*
X690Y3827D01*
X688Y3827D01*
X688Y3830D01*
X687Y3830D01*
X687Y3832D01*
X686Y3832D01*
X686Y3833D01*
X685Y3833D01*
X685Y3834D01*
X684Y3834D01*
X684Y3835D01*
X682Y3835D01*
X682Y3837D01*
X679Y3837D01*
X679Y3838D01*
X668Y3838D01*
G37*
D02*
G54D30*
X218Y3446D02*
X251Y3446D01*
X290Y3446D02*
X291Y3446D01*
X328Y3446D02*
X328Y3446D01*
X358Y3446D02*
X359Y3446D01*
X396Y3446D02*
X396Y3446D01*
X423Y3446D02*
X433Y3446D01*
X457Y3446D02*
X468Y3446D01*
X497Y3446D02*
X497Y3446D01*
X563Y3446D02*
X596Y3446D01*
X717Y3446D02*
X736Y3446D01*
X767Y3446D02*
X767Y3446D01*
X804Y3446D02*
X804Y3446D01*
X218Y3445D02*
X255Y3445D01*
X288Y3445D02*
X293Y3445D01*
X325Y3445D02*
X330Y3445D01*
X356Y3445D02*
X361Y3445D01*
X393Y3445D02*
X398Y3445D01*
X422Y3445D02*
X434Y3445D01*
X456Y3445D02*
X468Y3445D01*
X494Y3445D02*
X499Y3445D01*
X560Y3445D02*
X599Y3445D01*
X713Y3445D02*
X739Y3445D01*
X764Y3445D02*
X769Y3445D01*
X802Y3445D02*
X807Y3445D01*
X218Y3444D02*
X257Y3444D01*
X287Y3444D02*
X294Y3444D01*
X324Y3444D02*
X331Y3444D01*
X355Y3444D02*
X362Y3444D01*
X393Y3444D02*
X399Y3444D01*
X422Y3444D02*
X435Y3444D01*
X456Y3444D02*
X468Y3444D01*
X494Y3444D02*
X500Y3444D01*
X559Y3444D02*
X601Y3444D01*
X711Y3444D02*
X739Y3444D01*
X763Y3444D02*
X770Y3444D01*
X801Y3444D02*
X807Y3444D01*
X218Y3443D02*
X258Y3443D01*
X287Y3443D02*
X294Y3443D01*
X324Y3443D02*
X332Y3443D01*
X355Y3443D02*
X362Y3443D01*
X392Y3443D02*
X400Y3443D01*
X422Y3443D02*
X435Y3443D01*
X455Y3443D02*
X468Y3443D01*
X493Y3443D02*
X501Y3443D01*
X559Y3443D02*
X602Y3443D01*
X710Y3443D02*
X740Y3443D01*
X763Y3443D02*
X771Y3443D01*
X800Y3443D02*
X808Y3443D01*
X218Y3442D02*
X260Y3442D01*
X286Y3442D02*
X295Y3442D01*
X324Y3442D02*
X332Y3442D01*
X354Y3442D02*
X363Y3442D01*
X392Y3442D02*
X400Y3442D01*
X422Y3442D02*
X436Y3442D01*
X454Y3442D02*
X468Y3442D01*
X493Y3442D02*
X501Y3442D01*
X559Y3442D02*
X602Y3442D01*
X709Y3442D02*
X740Y3442D01*
X763Y3442D02*
X771Y3442D01*
X800Y3442D02*
X808Y3442D01*
X218Y3441D02*
X261Y3441D01*
X286Y3441D02*
X295Y3441D01*
X324Y3441D02*
X332Y3441D01*
X354Y3441D02*
X363Y3441D01*
X392Y3441D02*
X400Y3441D01*
X422Y3441D02*
X437Y3441D01*
X454Y3441D02*
X468Y3441D01*
X493Y3441D02*
X501Y3441D01*
X558Y3441D02*
X603Y3441D01*
X708Y3441D02*
X740Y3441D01*
X763Y3441D02*
X771Y3441D01*
X800Y3441D02*
X808Y3441D01*
X218Y3440D02*
X261Y3440D01*
X286Y3440D02*
X295Y3440D01*
X324Y3440D02*
X332Y3440D01*
X354Y3440D02*
X363Y3440D01*
X392Y3440D02*
X400Y3440D01*
X422Y3440D02*
X437Y3440D01*
X453Y3440D02*
X468Y3440D01*
X493Y3440D02*
X501Y3440D01*
X559Y3440D02*
X604Y3440D01*
X707Y3440D02*
X740Y3440D01*
X763Y3440D02*
X771Y3440D01*
X800Y3440D02*
X808Y3440D01*
X218Y3439D02*
X262Y3439D01*
X286Y3439D02*
X295Y3439D01*
X324Y3439D02*
X332Y3439D01*
X354Y3439D02*
X363Y3439D01*
X392Y3439D02*
X400Y3439D01*
X422Y3439D02*
X438Y3439D01*
X452Y3439D02*
X468Y3439D01*
X493Y3439D02*
X501Y3439D01*
X559Y3439D02*
X604Y3439D01*
X707Y3439D02*
X740Y3439D01*
X763Y3439D02*
X771Y3439D01*
X800Y3439D02*
X808Y3439D01*
X218Y3438D02*
X263Y3438D01*
X286Y3438D02*
X295Y3438D01*
X324Y3438D02*
X332Y3438D01*
X354Y3438D02*
X363Y3438D01*
X392Y3438D02*
X400Y3438D01*
X422Y3438D02*
X439Y3438D01*
X452Y3438D02*
X468Y3438D01*
X493Y3438D02*
X501Y3438D01*
X525Y3438D02*
X525Y3438D01*
X560Y3438D02*
X604Y3438D01*
X706Y3438D02*
X739Y3438D01*
X763Y3438D02*
X771Y3438D01*
X800Y3438D02*
X808Y3438D01*
X218Y3437D02*
X263Y3437D01*
X286Y3437D02*
X295Y3437D01*
X324Y3437D02*
X332Y3437D01*
X354Y3437D02*
X363Y3437D01*
X392Y3437D02*
X400Y3437D01*
X422Y3437D02*
X440Y3437D01*
X451Y3437D02*
X468Y3437D01*
X493Y3437D02*
X501Y3437D01*
X522Y3437D02*
X527Y3437D01*
X561Y3437D02*
X604Y3437D01*
X706Y3437D02*
X737Y3437D01*
X763Y3437D02*
X771Y3437D01*
X800Y3437D02*
X808Y3437D01*
X218Y3436D02*
X227Y3436D01*
X253Y3436D02*
X263Y3436D01*
X286Y3436D02*
X295Y3436D01*
X324Y3436D02*
X332Y3436D01*
X354Y3436D02*
X363Y3436D01*
X392Y3436D02*
X400Y3436D01*
X422Y3436D02*
X440Y3436D01*
X450Y3436D02*
X468Y3436D01*
X493Y3436D02*
X501Y3436D01*
X522Y3436D02*
X528Y3436D01*
X596Y3436D02*
X604Y3436D01*
X705Y3436D02*
X716Y3436D01*
X763Y3436D02*
X771Y3436D01*
X800Y3436D02*
X808Y3436D01*
X218Y3435D02*
X227Y3435D01*
X254Y3435D02*
X264Y3435D01*
X286Y3435D02*
X295Y3435D01*
X324Y3435D02*
X332Y3435D01*
X354Y3435D02*
X363Y3435D01*
X392Y3435D02*
X400Y3435D01*
X422Y3435D02*
X441Y3435D01*
X449Y3435D02*
X468Y3435D01*
X493Y3435D02*
X501Y3435D01*
X521Y3435D02*
X529Y3435D01*
X596Y3435D02*
X604Y3435D01*
X705Y3435D02*
X715Y3435D01*
X763Y3435D02*
X771Y3435D01*
X800Y3435D02*
X808Y3435D01*
X218Y3434D02*
X227Y3434D01*
X255Y3434D02*
X264Y3434D01*
X286Y3434D02*
X295Y3434D01*
X324Y3434D02*
X332Y3434D01*
X354Y3434D02*
X363Y3434D01*
X392Y3434D02*
X400Y3434D01*
X422Y3434D02*
X442Y3434D01*
X449Y3434D02*
X468Y3434D01*
X493Y3434D02*
X501Y3434D01*
X521Y3434D02*
X529Y3434D01*
X596Y3434D02*
X604Y3434D01*
X704Y3434D02*
X714Y3434D01*
X763Y3434D02*
X771Y3434D01*
X800Y3434D02*
X808Y3434D01*
X218Y3433D02*
X227Y3433D01*
X255Y3433D02*
X264Y3433D01*
X286Y3433D02*
X295Y3433D01*
X324Y3433D02*
X332Y3433D01*
X354Y3433D02*
X363Y3433D01*
X392Y3433D02*
X400Y3433D01*
X422Y3433D02*
X442Y3433D01*
X448Y3433D02*
X468Y3433D01*
X493Y3433D02*
X501Y3433D01*
X521Y3433D02*
X529Y3433D01*
X596Y3433D02*
X604Y3433D01*
X704Y3433D02*
X713Y3433D01*
X763Y3433D02*
X771Y3433D01*
X800Y3433D02*
X808Y3433D01*
X218Y3432D02*
X227Y3432D01*
X255Y3432D02*
X264Y3432D01*
X286Y3432D02*
X295Y3432D01*
X324Y3432D02*
X332Y3432D01*
X354Y3432D02*
X363Y3432D01*
X392Y3432D02*
X400Y3432D01*
X422Y3432D02*
X443Y3432D01*
X447Y3432D02*
X458Y3432D01*
X460Y3432D02*
X468Y3432D01*
X493Y3432D02*
X501Y3432D01*
X521Y3432D02*
X529Y3432D01*
X596Y3432D02*
X604Y3432D01*
X703Y3432D02*
X713Y3432D01*
X763Y3432D02*
X771Y3432D01*
X800Y3432D02*
X808Y3432D01*
X218Y3431D02*
X227Y3431D01*
X256Y3431D02*
X264Y3431D01*
X286Y3431D02*
X295Y3431D01*
X324Y3431D02*
X332Y3431D01*
X354Y3431D02*
X363Y3431D01*
X392Y3431D02*
X400Y3431D01*
X422Y3431D02*
X431Y3431D01*
X433Y3431D02*
X444Y3431D01*
X447Y3431D02*
X457Y3431D01*
X460Y3431D02*
X468Y3431D01*
X493Y3431D02*
X501Y3431D01*
X521Y3431D02*
X529Y3431D01*
X596Y3431D02*
X604Y3431D01*
X703Y3431D02*
X712Y3431D01*
X763Y3431D02*
X771Y3431D01*
X800Y3431D02*
X808Y3431D01*
X218Y3430D02*
X227Y3430D01*
X256Y3430D02*
X264Y3430D01*
X286Y3430D02*
X295Y3430D01*
X324Y3430D02*
X332Y3430D01*
X354Y3430D02*
X363Y3430D01*
X392Y3430D02*
X400Y3430D01*
X422Y3430D02*
X431Y3430D01*
X434Y3430D02*
X457Y3430D01*
X460Y3430D02*
X468Y3430D01*
X493Y3430D02*
X501Y3430D01*
X521Y3430D02*
X529Y3430D01*
X596Y3430D02*
X604Y3430D01*
X702Y3430D02*
X712Y3430D01*
X763Y3430D02*
X771Y3430D01*
X800Y3430D02*
X808Y3430D01*
X218Y3429D02*
X227Y3429D01*
X256Y3429D02*
X264Y3429D01*
X286Y3429D02*
X295Y3429D01*
X324Y3429D02*
X332Y3429D01*
X354Y3429D02*
X363Y3429D01*
X392Y3429D02*
X400Y3429D01*
X422Y3429D02*
X431Y3429D01*
X435Y3429D02*
X456Y3429D01*
X460Y3429D02*
X468Y3429D01*
X493Y3429D02*
X501Y3429D01*
X521Y3429D02*
X529Y3429D01*
X596Y3429D02*
X604Y3429D01*
X702Y3429D02*
X711Y3429D01*
X763Y3429D02*
X771Y3429D01*
X800Y3429D02*
X808Y3429D01*
X218Y3428D02*
X227Y3428D01*
X256Y3428D02*
X264Y3428D01*
X286Y3428D02*
X295Y3428D01*
X324Y3428D02*
X332Y3428D01*
X354Y3428D02*
X363Y3428D01*
X392Y3428D02*
X400Y3428D01*
X422Y3428D02*
X431Y3428D01*
X435Y3428D02*
X455Y3428D01*
X460Y3428D02*
X468Y3428D01*
X493Y3428D02*
X501Y3428D01*
X521Y3428D02*
X529Y3428D01*
X596Y3428D02*
X604Y3428D01*
X701Y3428D02*
X711Y3428D01*
X763Y3428D02*
X771Y3428D01*
X800Y3428D02*
X808Y3428D01*
X218Y3427D02*
X227Y3427D01*
X255Y3427D02*
X264Y3427D01*
X286Y3427D02*
X295Y3427D01*
X324Y3427D02*
X332Y3427D01*
X354Y3427D02*
X363Y3427D01*
X392Y3427D02*
X400Y3427D01*
X422Y3427D02*
X431Y3427D01*
X436Y3427D02*
X454Y3427D01*
X460Y3427D02*
X468Y3427D01*
X493Y3427D02*
X501Y3427D01*
X521Y3427D02*
X529Y3427D01*
X596Y3427D02*
X604Y3427D01*
X701Y3427D02*
X710Y3427D01*
X763Y3427D02*
X771Y3427D01*
X800Y3427D02*
X808Y3427D01*
X218Y3426D02*
X227Y3426D01*
X255Y3426D02*
X264Y3426D01*
X286Y3426D02*
X295Y3426D01*
X324Y3426D02*
X332Y3426D01*
X354Y3426D02*
X363Y3426D01*
X392Y3426D02*
X400Y3426D01*
X422Y3426D02*
X431Y3426D01*
X437Y3426D02*
X454Y3426D01*
X460Y3426D02*
X468Y3426D01*
X493Y3426D02*
X501Y3426D01*
X521Y3426D02*
X529Y3426D01*
X596Y3426D02*
X604Y3426D01*
X700Y3426D02*
X710Y3426D01*
X763Y3426D02*
X771Y3426D01*
X800Y3426D02*
X808Y3426D01*
X218Y3425D02*
X227Y3425D01*
X255Y3425D02*
X264Y3425D01*
X286Y3425D02*
X295Y3425D01*
X324Y3425D02*
X332Y3425D01*
X354Y3425D02*
X363Y3425D01*
X392Y3425D02*
X400Y3425D01*
X422Y3425D02*
X431Y3425D01*
X437Y3425D02*
X453Y3425D01*
X460Y3425D02*
X468Y3425D01*
X493Y3425D02*
X501Y3425D01*
X521Y3425D02*
X529Y3425D01*
X596Y3425D02*
X604Y3425D01*
X700Y3425D02*
X709Y3425D01*
X763Y3425D02*
X771Y3425D01*
X800Y3425D02*
X808Y3425D01*
X218Y3424D02*
X227Y3424D01*
X254Y3424D02*
X264Y3424D01*
X286Y3424D02*
X295Y3424D01*
X324Y3424D02*
X332Y3424D01*
X354Y3424D02*
X363Y3424D01*
X392Y3424D02*
X400Y3424D01*
X422Y3424D02*
X431Y3424D01*
X438Y3424D02*
X452Y3424D01*
X460Y3424D02*
X468Y3424D01*
X493Y3424D02*
X501Y3424D01*
X521Y3424D02*
X529Y3424D01*
X596Y3424D02*
X604Y3424D01*
X699Y3424D02*
X709Y3424D01*
X763Y3424D02*
X771Y3424D01*
X800Y3424D02*
X808Y3424D01*
X218Y3423D02*
X227Y3423D01*
X253Y3423D02*
X263Y3423D01*
X286Y3423D02*
X295Y3423D01*
X324Y3423D02*
X332Y3423D01*
X354Y3423D02*
X363Y3423D01*
X392Y3423D02*
X400Y3423D01*
X422Y3423D02*
X431Y3423D01*
X439Y3423D02*
X452Y3423D01*
X460Y3423D02*
X468Y3423D01*
X493Y3423D02*
X501Y3423D01*
X521Y3423D02*
X529Y3423D01*
X596Y3423D02*
X604Y3423D01*
X699Y3423D02*
X708Y3423D01*
X763Y3423D02*
X771Y3423D01*
X800Y3423D02*
X808Y3423D01*
X218Y3422D02*
X263Y3422D01*
X286Y3422D02*
X295Y3422D01*
X324Y3422D02*
X332Y3422D01*
X354Y3422D02*
X363Y3422D01*
X392Y3422D02*
X400Y3422D01*
X422Y3422D02*
X431Y3422D01*
X439Y3422D02*
X451Y3422D01*
X460Y3422D02*
X468Y3422D01*
X493Y3422D02*
X501Y3422D01*
X521Y3422D02*
X529Y3422D01*
X596Y3422D02*
X604Y3422D01*
X698Y3422D02*
X708Y3422D01*
X763Y3422D02*
X771Y3422D01*
X800Y3422D02*
X808Y3422D01*
X218Y3421D02*
X263Y3421D01*
X286Y3421D02*
X295Y3421D01*
X324Y3421D02*
X332Y3421D01*
X354Y3421D02*
X363Y3421D01*
X392Y3421D02*
X400Y3421D01*
X422Y3421D02*
X431Y3421D01*
X440Y3421D02*
X450Y3421D01*
X460Y3421D02*
X468Y3421D01*
X493Y3421D02*
X501Y3421D01*
X521Y3421D02*
X529Y3421D01*
X596Y3421D02*
X604Y3421D01*
X698Y3421D02*
X707Y3421D01*
X763Y3421D02*
X771Y3421D01*
X800Y3421D02*
X808Y3421D01*
X218Y3420D02*
X262Y3420D01*
X286Y3420D02*
X295Y3420D01*
X324Y3420D02*
X332Y3420D01*
X354Y3420D02*
X363Y3420D01*
X392Y3420D02*
X400Y3420D01*
X422Y3420D02*
X431Y3420D01*
X441Y3420D02*
X450Y3420D01*
X460Y3420D02*
X468Y3420D01*
X493Y3420D02*
X501Y3420D01*
X521Y3420D02*
X529Y3420D01*
X596Y3420D02*
X604Y3420D01*
X697Y3420D02*
X707Y3420D01*
X763Y3420D02*
X771Y3420D01*
X800Y3420D02*
X808Y3420D01*
X218Y3419D02*
X262Y3419D01*
X286Y3419D02*
X295Y3419D01*
X324Y3419D02*
X332Y3419D01*
X354Y3419D02*
X363Y3419D01*
X392Y3419D02*
X400Y3419D01*
X422Y3419D02*
X431Y3419D01*
X441Y3419D02*
X449Y3419D01*
X460Y3419D02*
X468Y3419D01*
X493Y3419D02*
X501Y3419D01*
X521Y3419D02*
X529Y3419D01*
X596Y3419D02*
X604Y3419D01*
X697Y3419D02*
X706Y3419D01*
X763Y3419D02*
X771Y3419D01*
X800Y3419D02*
X808Y3419D01*
X218Y3418D02*
X261Y3418D01*
X286Y3418D02*
X295Y3418D01*
X324Y3418D02*
X332Y3418D01*
X354Y3418D02*
X363Y3418D01*
X392Y3418D02*
X400Y3418D01*
X422Y3418D02*
X431Y3418D01*
X441Y3418D02*
X449Y3418D01*
X460Y3418D02*
X468Y3418D01*
X493Y3418D02*
X501Y3418D01*
X521Y3418D02*
X529Y3418D01*
X596Y3418D02*
X604Y3418D01*
X696Y3418D02*
X706Y3418D01*
X763Y3418D02*
X771Y3418D01*
X800Y3418D02*
X808Y3418D01*
X218Y3417D02*
X260Y3417D01*
X286Y3417D02*
X295Y3417D01*
X324Y3417D02*
X332Y3417D01*
X354Y3417D02*
X363Y3417D01*
X392Y3417D02*
X400Y3417D01*
X422Y3417D02*
X431Y3417D01*
X441Y3417D02*
X449Y3417D01*
X460Y3417D02*
X468Y3417D01*
X493Y3417D02*
X501Y3417D01*
X521Y3417D02*
X529Y3417D01*
X596Y3417D02*
X604Y3417D01*
X696Y3417D02*
X705Y3417D01*
X763Y3417D02*
X771Y3417D01*
X800Y3417D02*
X808Y3417D01*
X218Y3416D02*
X259Y3416D01*
X286Y3416D02*
X295Y3416D01*
X324Y3416D02*
X332Y3416D01*
X354Y3416D02*
X363Y3416D01*
X392Y3416D02*
X400Y3416D01*
X422Y3416D02*
X431Y3416D01*
X441Y3416D02*
X449Y3416D01*
X460Y3416D02*
X468Y3416D01*
X493Y3416D02*
X501Y3416D01*
X521Y3416D02*
X529Y3416D01*
X596Y3416D02*
X604Y3416D01*
X696Y3416D02*
X705Y3416D01*
X763Y3416D02*
X771Y3416D01*
X800Y3416D02*
X808Y3416D01*
X218Y3415D02*
X257Y3415D01*
X286Y3415D02*
X295Y3415D01*
X324Y3415D02*
X332Y3415D01*
X354Y3415D02*
X363Y3415D01*
X392Y3415D02*
X400Y3415D01*
X422Y3415D02*
X431Y3415D01*
X442Y3415D02*
X449Y3415D01*
X460Y3415D02*
X468Y3415D01*
X493Y3415D02*
X501Y3415D01*
X521Y3415D02*
X529Y3415D01*
X596Y3415D02*
X604Y3415D01*
X695Y3415D02*
X704Y3415D01*
X763Y3415D02*
X771Y3415D01*
X800Y3415D02*
X808Y3415D01*
X218Y3414D02*
X256Y3414D01*
X286Y3414D02*
X295Y3414D01*
X324Y3414D02*
X332Y3414D01*
X354Y3414D02*
X363Y3414D01*
X392Y3414D02*
X400Y3414D01*
X422Y3414D02*
X431Y3414D01*
X442Y3414D02*
X448Y3414D01*
X460Y3414D02*
X468Y3414D01*
X493Y3414D02*
X501Y3414D01*
X521Y3414D02*
X529Y3414D01*
X567Y3414D02*
X604Y3414D01*
X695Y3414D02*
X704Y3414D01*
X763Y3414D02*
X808Y3414D01*
X218Y3413D02*
X253Y3413D01*
X286Y3413D02*
X295Y3413D01*
X324Y3413D02*
X332Y3413D01*
X354Y3413D02*
X363Y3413D01*
X392Y3413D02*
X400Y3413D01*
X422Y3413D02*
X431Y3413D01*
X444Y3413D02*
X446Y3413D01*
X460Y3413D02*
X468Y3413D01*
X493Y3413D02*
X501Y3413D01*
X521Y3413D02*
X529Y3413D01*
X564Y3413D02*
X604Y3413D01*
X695Y3413D02*
X704Y3413D01*
X763Y3413D02*
X808Y3413D01*
X218Y3412D02*
X227Y3412D01*
X235Y3412D02*
X245Y3412D01*
X286Y3412D02*
X295Y3412D01*
X324Y3412D02*
X332Y3412D01*
X354Y3412D02*
X363Y3412D01*
X392Y3412D02*
X400Y3412D01*
X422Y3412D02*
X431Y3412D01*
X460Y3412D02*
X468Y3412D01*
X493Y3412D02*
X501Y3412D01*
X521Y3412D02*
X529Y3412D01*
X562Y3412D02*
X604Y3412D01*
X695Y3412D02*
X703Y3412D01*
X763Y3412D02*
X808Y3412D01*
X218Y3411D02*
X227Y3411D01*
X235Y3411D02*
X245Y3411D01*
X286Y3411D02*
X295Y3411D01*
X324Y3411D02*
X332Y3411D01*
X354Y3411D02*
X363Y3411D01*
X392Y3411D02*
X400Y3411D01*
X422Y3411D02*
X431Y3411D01*
X460Y3411D02*
X468Y3411D01*
X493Y3411D02*
X501Y3411D01*
X521Y3411D02*
X529Y3411D01*
X561Y3411D02*
X604Y3411D01*
X695Y3411D02*
X703Y3411D01*
X763Y3411D02*
X808Y3411D01*
X218Y3410D02*
X227Y3410D01*
X236Y3410D02*
X246Y3410D01*
X286Y3410D02*
X295Y3410D01*
X324Y3410D02*
X332Y3410D01*
X354Y3410D02*
X363Y3410D01*
X392Y3410D02*
X400Y3410D01*
X422Y3410D02*
X431Y3410D01*
X460Y3410D02*
X468Y3410D01*
X493Y3410D02*
X501Y3410D01*
X521Y3410D02*
X529Y3410D01*
X560Y3410D02*
X603Y3410D01*
X695Y3410D02*
X703Y3410D01*
X763Y3410D02*
X808Y3410D01*
X218Y3409D02*
X227Y3409D01*
X236Y3409D02*
X246Y3409D01*
X286Y3409D02*
X295Y3409D01*
X324Y3409D02*
X332Y3409D01*
X354Y3409D02*
X363Y3409D01*
X392Y3409D02*
X400Y3409D01*
X422Y3409D02*
X431Y3409D01*
X460Y3409D02*
X468Y3409D01*
X493Y3409D02*
X501Y3409D01*
X521Y3409D02*
X529Y3409D01*
X559Y3409D02*
X603Y3409D01*
X695Y3409D02*
X703Y3409D01*
X763Y3409D02*
X808Y3409D01*
X218Y3408D02*
X227Y3408D01*
X237Y3408D02*
X247Y3408D01*
X286Y3408D02*
X295Y3408D01*
X324Y3408D02*
X332Y3408D01*
X354Y3408D02*
X363Y3408D01*
X392Y3408D02*
X400Y3408D01*
X422Y3408D02*
X431Y3408D01*
X460Y3408D02*
X468Y3408D01*
X493Y3408D02*
X501Y3408D01*
X521Y3408D02*
X529Y3408D01*
X559Y3408D02*
X602Y3408D01*
X695Y3408D02*
X703Y3408D01*
X763Y3408D02*
X808Y3408D01*
X218Y3407D02*
X227Y3407D01*
X237Y3407D02*
X248Y3407D01*
X286Y3407D02*
X295Y3407D01*
X324Y3407D02*
X332Y3407D01*
X354Y3407D02*
X363Y3407D01*
X392Y3407D02*
X400Y3407D01*
X422Y3407D02*
X431Y3407D01*
X460Y3407D02*
X468Y3407D01*
X493Y3407D02*
X501Y3407D01*
X521Y3407D02*
X529Y3407D01*
X559Y3407D02*
X601Y3407D01*
X695Y3407D02*
X703Y3407D01*
X763Y3407D02*
X808Y3407D01*
X218Y3406D02*
X227Y3406D01*
X238Y3406D02*
X248Y3406D01*
X286Y3406D02*
X295Y3406D01*
X324Y3406D02*
X332Y3406D01*
X354Y3406D02*
X363Y3406D01*
X392Y3406D02*
X400Y3406D01*
X422Y3406D02*
X431Y3406D01*
X460Y3406D02*
X468Y3406D01*
X493Y3406D02*
X530Y3406D01*
X559Y3406D02*
X599Y3406D01*
X695Y3406D02*
X704Y3406D01*
X763Y3406D02*
X808Y3406D01*
X218Y3405D02*
X227Y3405D01*
X239Y3405D02*
X249Y3405D01*
X286Y3405D02*
X295Y3405D01*
X324Y3405D02*
X332Y3405D01*
X354Y3405D02*
X363Y3405D01*
X392Y3405D02*
X400Y3405D01*
X422Y3405D02*
X431Y3405D01*
X460Y3405D02*
X468Y3405D01*
X493Y3405D02*
X532Y3405D01*
X558Y3405D02*
X597Y3405D01*
X695Y3405D02*
X704Y3405D01*
X763Y3405D02*
X808Y3405D01*
X218Y3404D02*
X227Y3404D01*
X239Y3404D02*
X249Y3404D01*
X286Y3404D02*
X295Y3404D01*
X324Y3404D02*
X332Y3404D01*
X354Y3404D02*
X363Y3404D01*
X392Y3404D02*
X400Y3404D01*
X422Y3404D02*
X431Y3404D01*
X460Y3404D02*
X468Y3404D01*
X493Y3404D02*
X533Y3404D01*
X558Y3404D02*
X567Y3404D01*
X695Y3404D02*
X704Y3404D01*
X763Y3404D02*
X771Y3404D01*
X800Y3404D02*
X808Y3404D01*
X218Y3403D02*
X227Y3403D01*
X240Y3403D02*
X250Y3403D01*
X286Y3403D02*
X295Y3403D01*
X324Y3403D02*
X332Y3403D01*
X354Y3403D02*
X363Y3403D01*
X392Y3403D02*
X400Y3403D01*
X422Y3403D02*
X431Y3403D01*
X460Y3403D02*
X468Y3403D01*
X493Y3403D02*
X534Y3403D01*
X558Y3403D02*
X567Y3403D01*
X696Y3403D02*
X705Y3403D01*
X763Y3403D02*
X771Y3403D01*
X800Y3403D02*
X808Y3403D01*
X218Y3402D02*
X227Y3402D01*
X240Y3402D02*
X250Y3402D01*
X286Y3402D02*
X295Y3402D01*
X324Y3402D02*
X332Y3402D01*
X354Y3402D02*
X363Y3402D01*
X392Y3402D02*
X400Y3402D01*
X422Y3402D02*
X431Y3402D01*
X460Y3402D02*
X468Y3402D01*
X493Y3402D02*
X534Y3402D01*
X558Y3402D02*
X567Y3402D01*
X644Y3402D02*
X654Y3402D01*
X696Y3402D02*
X705Y3402D01*
X763Y3402D02*
X771Y3402D01*
X800Y3402D02*
X808Y3402D01*
X218Y3401D02*
X227Y3401D01*
X241Y3401D02*
X251Y3401D01*
X286Y3401D02*
X295Y3401D01*
X324Y3401D02*
X332Y3401D01*
X354Y3401D02*
X363Y3401D01*
X392Y3401D02*
X400Y3401D01*
X422Y3401D02*
X431Y3401D01*
X460Y3401D02*
X468Y3401D01*
X493Y3401D02*
X534Y3401D01*
X558Y3401D02*
X567Y3401D01*
X642Y3401D02*
X657Y3401D01*
X696Y3401D02*
X706Y3401D01*
X763Y3401D02*
X771Y3401D01*
X800Y3401D02*
X808Y3401D01*
X218Y3400D02*
X227Y3400D01*
X242Y3400D02*
X252Y3400D01*
X286Y3400D02*
X295Y3400D01*
X324Y3400D02*
X332Y3400D01*
X354Y3400D02*
X363Y3400D01*
X392Y3400D02*
X400Y3400D01*
X422Y3400D02*
X431Y3400D01*
X460Y3400D02*
X468Y3400D01*
X493Y3400D02*
X534Y3400D01*
X558Y3400D02*
X567Y3400D01*
X641Y3400D02*
X657Y3400D01*
X697Y3400D02*
X706Y3400D01*
X763Y3400D02*
X771Y3400D01*
X800Y3400D02*
X808Y3400D01*
X218Y3399D02*
X227Y3399D01*
X242Y3399D02*
X252Y3399D01*
X286Y3399D02*
X295Y3399D01*
X324Y3399D02*
X332Y3399D01*
X354Y3399D02*
X363Y3399D01*
X392Y3399D02*
X400Y3399D01*
X422Y3399D02*
X431Y3399D01*
X460Y3399D02*
X468Y3399D01*
X493Y3399D02*
X533Y3399D01*
X558Y3399D02*
X567Y3399D01*
X641Y3399D02*
X658Y3399D01*
X697Y3399D02*
X707Y3399D01*
X763Y3399D02*
X771Y3399D01*
X800Y3399D02*
X808Y3399D01*
X218Y3398D02*
X227Y3398D01*
X243Y3398D02*
X253Y3398D01*
X286Y3398D02*
X295Y3398D01*
X324Y3398D02*
X332Y3398D01*
X354Y3398D02*
X363Y3398D01*
X392Y3398D02*
X400Y3398D01*
X422Y3398D02*
X431Y3398D01*
X460Y3398D02*
X468Y3398D01*
X493Y3398D02*
X532Y3398D01*
X558Y3398D02*
X567Y3398D01*
X640Y3398D02*
X658Y3398D01*
X698Y3398D02*
X707Y3398D01*
X763Y3398D02*
X771Y3398D01*
X800Y3398D02*
X808Y3398D01*
X218Y3397D02*
X227Y3397D01*
X243Y3397D02*
X253Y3397D01*
X286Y3397D02*
X295Y3397D01*
X324Y3397D02*
X332Y3397D01*
X354Y3397D02*
X363Y3397D01*
X392Y3397D02*
X400Y3397D01*
X422Y3397D02*
X431Y3397D01*
X460Y3397D02*
X468Y3397D01*
X493Y3397D02*
X531Y3397D01*
X558Y3397D02*
X567Y3397D01*
X640Y3397D02*
X658Y3397D01*
X698Y3397D02*
X708Y3397D01*
X763Y3397D02*
X771Y3397D01*
X800Y3397D02*
X808Y3397D01*
X218Y3396D02*
X227Y3396D01*
X244Y3396D02*
X254Y3396D01*
X286Y3396D02*
X295Y3396D01*
X324Y3396D02*
X332Y3396D01*
X354Y3396D02*
X363Y3396D01*
X392Y3396D02*
X400Y3396D01*
X422Y3396D02*
X431Y3396D01*
X460Y3396D02*
X468Y3396D01*
X521Y3396D02*
X529Y3396D01*
X558Y3396D02*
X567Y3396D01*
X640Y3396D02*
X658Y3396D01*
X699Y3396D02*
X708Y3396D01*
X763Y3396D02*
X771Y3396D01*
X800Y3396D02*
X808Y3396D01*
X218Y3395D02*
X227Y3395D01*
X244Y3395D02*
X255Y3395D01*
X286Y3395D02*
X295Y3395D01*
X324Y3395D02*
X332Y3395D01*
X354Y3395D02*
X363Y3395D01*
X392Y3395D02*
X400Y3395D01*
X422Y3395D02*
X431Y3395D01*
X460Y3395D02*
X468Y3395D01*
X521Y3395D02*
X529Y3395D01*
X558Y3395D02*
X567Y3395D01*
X640Y3395D02*
X658Y3395D01*
X699Y3395D02*
X709Y3395D01*
X763Y3395D02*
X771Y3395D01*
X800Y3395D02*
X808Y3395D01*
X218Y3394D02*
X227Y3394D01*
X245Y3394D02*
X255Y3394D01*
X286Y3394D02*
X295Y3394D01*
X324Y3394D02*
X332Y3394D01*
X354Y3394D02*
X363Y3394D01*
X392Y3394D02*
X400Y3394D01*
X422Y3394D02*
X431Y3394D01*
X460Y3394D02*
X468Y3394D01*
X521Y3394D02*
X529Y3394D01*
X558Y3394D02*
X567Y3394D01*
X640Y3394D02*
X658Y3394D01*
X700Y3394D02*
X709Y3394D01*
X763Y3394D02*
X771Y3394D01*
X800Y3394D02*
X808Y3394D01*
X218Y3393D02*
X227Y3393D01*
X246Y3393D02*
X256Y3393D01*
X286Y3393D02*
X295Y3393D01*
X324Y3393D02*
X332Y3393D01*
X354Y3393D02*
X363Y3393D01*
X392Y3393D02*
X400Y3393D01*
X422Y3393D02*
X431Y3393D01*
X460Y3393D02*
X468Y3393D01*
X521Y3393D02*
X529Y3393D01*
X558Y3393D02*
X567Y3393D01*
X640Y3393D02*
X658Y3393D01*
X700Y3393D02*
X710Y3393D01*
X763Y3393D02*
X771Y3393D01*
X800Y3393D02*
X808Y3393D01*
X218Y3392D02*
X227Y3392D01*
X246Y3392D02*
X256Y3392D01*
X286Y3392D02*
X295Y3392D01*
X324Y3392D02*
X332Y3392D01*
X354Y3392D02*
X363Y3392D01*
X392Y3392D02*
X400Y3392D01*
X422Y3392D02*
X431Y3392D01*
X460Y3392D02*
X468Y3392D01*
X521Y3392D02*
X529Y3392D01*
X558Y3392D02*
X567Y3392D01*
X640Y3392D02*
X658Y3392D01*
X700Y3392D02*
X710Y3392D01*
X763Y3392D02*
X771Y3392D01*
X800Y3392D02*
X808Y3392D01*
X218Y3391D02*
X227Y3391D01*
X247Y3391D02*
X257Y3391D01*
X286Y3391D02*
X295Y3391D01*
X324Y3391D02*
X332Y3391D01*
X354Y3391D02*
X363Y3391D01*
X392Y3391D02*
X400Y3391D01*
X422Y3391D02*
X431Y3391D01*
X460Y3391D02*
X468Y3391D01*
X521Y3391D02*
X529Y3391D01*
X558Y3391D02*
X567Y3391D01*
X640Y3391D02*
X658Y3391D01*
X701Y3391D02*
X711Y3391D01*
X763Y3391D02*
X771Y3391D01*
X800Y3391D02*
X808Y3391D01*
X218Y3390D02*
X227Y3390D01*
X247Y3390D02*
X257Y3390D01*
X286Y3390D02*
X295Y3390D01*
X324Y3390D02*
X332Y3390D01*
X354Y3390D02*
X363Y3390D01*
X392Y3390D02*
X400Y3390D01*
X422Y3390D02*
X431Y3390D01*
X460Y3390D02*
X468Y3390D01*
X521Y3390D02*
X529Y3390D01*
X558Y3390D02*
X567Y3390D01*
X640Y3390D02*
X658Y3390D01*
X702Y3390D02*
X711Y3390D01*
X763Y3390D02*
X771Y3390D01*
X800Y3390D02*
X808Y3390D01*
X218Y3389D02*
X227Y3389D01*
X248Y3389D02*
X258Y3389D01*
X286Y3389D02*
X295Y3389D01*
X324Y3389D02*
X332Y3389D01*
X354Y3389D02*
X363Y3389D01*
X392Y3389D02*
X400Y3389D01*
X422Y3389D02*
X431Y3389D01*
X460Y3389D02*
X468Y3389D01*
X521Y3389D02*
X529Y3389D01*
X558Y3389D02*
X567Y3389D01*
X640Y3389D02*
X658Y3389D01*
X702Y3389D02*
X712Y3389D01*
X763Y3389D02*
X771Y3389D01*
X800Y3389D02*
X808Y3389D01*
X218Y3388D02*
X227Y3388D01*
X249Y3388D02*
X259Y3388D01*
X286Y3388D02*
X295Y3388D01*
X324Y3388D02*
X332Y3388D01*
X354Y3388D02*
X363Y3388D01*
X392Y3388D02*
X400Y3388D01*
X422Y3388D02*
X431Y3388D01*
X460Y3388D02*
X468Y3388D01*
X521Y3388D02*
X529Y3388D01*
X558Y3388D02*
X567Y3388D01*
X641Y3388D02*
X658Y3388D01*
X703Y3388D02*
X712Y3388D01*
X763Y3388D02*
X771Y3388D01*
X800Y3388D02*
X808Y3388D01*
X218Y3387D02*
X227Y3387D01*
X249Y3387D02*
X259Y3387D01*
X286Y3387D02*
X295Y3387D01*
X324Y3387D02*
X332Y3387D01*
X354Y3387D02*
X363Y3387D01*
X392Y3387D02*
X400Y3387D01*
X422Y3387D02*
X431Y3387D01*
X460Y3387D02*
X468Y3387D01*
X521Y3387D02*
X529Y3387D01*
X558Y3387D02*
X567Y3387D01*
X641Y3387D02*
X658Y3387D01*
X703Y3387D02*
X713Y3387D01*
X763Y3387D02*
X771Y3387D01*
X800Y3387D02*
X808Y3387D01*
X218Y3386D02*
X227Y3386D01*
X250Y3386D02*
X260Y3386D01*
X286Y3386D02*
X295Y3386D01*
X323Y3386D02*
X332Y3386D01*
X354Y3386D02*
X363Y3386D01*
X391Y3386D02*
X400Y3386D01*
X422Y3386D02*
X431Y3386D01*
X460Y3386D02*
X468Y3386D01*
X521Y3386D02*
X529Y3386D01*
X558Y3386D02*
X567Y3386D01*
X642Y3386D02*
X657Y3386D01*
X704Y3386D02*
X713Y3386D01*
X763Y3386D02*
X771Y3386D01*
X800Y3386D02*
X808Y3386D01*
X218Y3385D02*
X227Y3385D01*
X250Y3385D02*
X260Y3385D01*
X286Y3385D02*
X295Y3385D01*
X323Y3385D02*
X332Y3385D01*
X354Y3385D02*
X363Y3385D01*
X391Y3385D02*
X400Y3385D01*
X422Y3385D02*
X431Y3385D01*
X460Y3385D02*
X468Y3385D01*
X521Y3385D02*
X529Y3385D01*
X558Y3385D02*
X567Y3385D01*
X644Y3385D02*
X655Y3385D01*
X704Y3385D02*
X714Y3385D01*
X763Y3385D02*
X771Y3385D01*
X800Y3385D02*
X808Y3385D01*
X218Y3384D02*
X227Y3384D01*
X251Y3384D02*
X261Y3384D01*
X287Y3384D02*
X296Y3384D01*
X322Y3384D02*
X332Y3384D01*
X355Y3384D02*
X364Y3384D01*
X390Y3384D02*
X400Y3384D01*
X422Y3384D02*
X431Y3384D01*
X460Y3384D02*
X468Y3384D01*
X521Y3384D02*
X529Y3384D01*
X558Y3384D02*
X567Y3384D01*
X705Y3384D02*
X714Y3384D01*
X763Y3384D02*
X771Y3384D01*
X800Y3384D02*
X808Y3384D01*
X218Y3383D02*
X227Y3383D01*
X251Y3383D02*
X262Y3383D01*
X287Y3383D02*
X297Y3383D01*
X321Y3383D02*
X331Y3383D01*
X355Y3383D02*
X365Y3383D01*
X389Y3383D02*
X400Y3383D01*
X422Y3383D02*
X431Y3383D01*
X460Y3383D02*
X468Y3383D01*
X521Y3383D02*
X529Y3383D01*
X558Y3383D02*
X567Y3383D01*
X705Y3383D02*
X715Y3383D01*
X763Y3383D02*
X771Y3383D01*
X800Y3383D02*
X808Y3383D01*
X218Y3382D02*
X227Y3382D01*
X252Y3382D02*
X262Y3382D01*
X287Y3382D02*
X331Y3382D01*
X355Y3382D02*
X399Y3382D01*
X422Y3382D02*
X431Y3382D01*
X460Y3382D02*
X468Y3382D01*
X521Y3382D02*
X529Y3382D01*
X558Y3382D02*
X601Y3382D01*
X706Y3382D02*
X737Y3382D01*
X763Y3382D02*
X771Y3382D01*
X800Y3382D02*
X808Y3382D01*
X218Y3381D02*
X227Y3381D01*
X253Y3381D02*
X263Y3381D01*
X288Y3381D02*
X331Y3381D01*
X356Y3381D02*
X399Y3381D01*
X422Y3381D02*
X431Y3381D01*
X460Y3381D02*
X468Y3381D01*
X521Y3381D02*
X529Y3381D01*
X558Y3381D02*
X603Y3381D01*
X706Y3381D02*
X739Y3381D01*
X763Y3381D02*
X771Y3381D01*
X800Y3381D02*
X808Y3381D01*
X218Y3380D02*
X227Y3380D01*
X253Y3380D02*
X263Y3380D01*
X288Y3380D02*
X330Y3380D01*
X356Y3380D02*
X398Y3380D01*
X422Y3380D02*
X431Y3380D01*
X460Y3380D02*
X468Y3380D01*
X521Y3380D02*
X529Y3380D01*
X558Y3380D02*
X603Y3380D01*
X707Y3380D02*
X740Y3380D01*
X763Y3380D02*
X771Y3380D01*
X800Y3380D02*
X808Y3380D01*
X218Y3379D02*
X227Y3379D01*
X254Y3379D02*
X264Y3379D01*
X289Y3379D02*
X330Y3379D01*
X357Y3379D02*
X398Y3379D01*
X422Y3379D02*
X431Y3379D01*
X460Y3379D02*
X468Y3379D01*
X521Y3379D02*
X529Y3379D01*
X558Y3379D02*
X604Y3379D01*
X707Y3379D02*
X740Y3379D01*
X763Y3379D02*
X771Y3379D01*
X800Y3379D02*
X808Y3379D01*
X218Y3378D02*
X227Y3378D01*
X254Y3378D02*
X264Y3378D01*
X289Y3378D02*
X329Y3378D01*
X358Y3378D02*
X397Y3378D01*
X422Y3378D02*
X431Y3378D01*
X460Y3378D02*
X468Y3378D01*
X521Y3378D02*
X529Y3378D01*
X558Y3378D02*
X604Y3378D01*
X708Y3378D02*
X740Y3378D01*
X763Y3378D02*
X771Y3378D01*
X800Y3378D02*
X808Y3378D01*
X218Y3377D02*
X227Y3377D01*
X255Y3377D02*
X264Y3377D01*
X290Y3377D02*
X328Y3377D01*
X358Y3377D02*
X396Y3377D01*
X422Y3377D02*
X431Y3377D01*
X460Y3377D02*
X468Y3377D01*
X521Y3377D02*
X529Y3377D01*
X558Y3377D02*
X604Y3377D01*
X709Y3377D02*
X740Y3377D01*
X763Y3377D02*
X771Y3377D01*
X800Y3377D02*
X808Y3377D01*
X218Y3376D02*
X226Y3376D01*
X256Y3376D02*
X264Y3376D01*
X291Y3376D02*
X327Y3376D01*
X360Y3376D02*
X395Y3376D01*
X423Y3376D02*
X431Y3376D01*
X460Y3376D02*
X468Y3376D01*
X521Y3376D02*
X529Y3376D01*
X558Y3376D02*
X604Y3376D01*
X710Y3376D02*
X740Y3376D01*
X763Y3376D02*
X771Y3376D01*
X800Y3376D02*
X808Y3376D01*
X219Y3375D02*
X226Y3375D01*
X256Y3375D02*
X263Y3375D01*
X293Y3375D02*
X325Y3375D01*
X361Y3375D02*
X394Y3375D01*
X423Y3375D02*
X430Y3375D01*
X460Y3375D02*
X467Y3375D01*
X521Y3375D02*
X528Y3375D01*
X558Y3375D02*
X603Y3375D01*
X711Y3375D02*
X740Y3375D01*
X763Y3375D02*
X770Y3375D01*
X801Y3375D02*
X808Y3375D01*
X220Y3374D02*
X225Y3374D01*
X257Y3374D02*
X262Y3374D01*
X295Y3374D02*
X324Y3374D01*
X363Y3374D02*
X392Y3374D01*
X424Y3374D02*
X429Y3374D01*
X461Y3374D02*
X467Y3374D01*
X522Y3374D02*
X528Y3374D01*
X558Y3374D02*
X603Y3374D01*
X713Y3374D02*
X739Y3374D01*
X764Y3374D02*
X769Y3374D01*
X801Y3374D02*
X807Y3374D01*
X221Y3373D02*
X223Y3373D01*
X259Y3373D02*
X261Y3373D01*
X298Y3373D02*
X321Y3373D01*
X366Y3373D02*
X389Y3373D01*
X425Y3373D02*
X428Y3373D01*
X463Y3373D02*
X465Y3373D01*
X524Y3373D02*
X526Y3373D01*
X559Y3373D02*
X601Y3373D01*
X716Y3373D02*
X737Y3373D01*
X766Y3373D02*
X768Y3373D01*
X803Y3373D02*
X805Y3373D01*
D02*
G04 End of Copper1*
M02*