; NON-PLATED HOLES START AT T1
; THROUGH (PLATED) HOLES START AT T100
M48
INCH
T1C0.125984
T100C0.047244
T101C0.015748
T102C0.030000
T103C0.040000
T104C0.035000
T105C0.036000
%
T1
X057079Y042127
X057079Y001969
X001961Y042127
X001961Y001969
T100
X016654Y010190
X023654Y005268
X021685Y005268
X016654Y005268
X009685Y005347
X007717Y005347
X007717Y010268
X021685Y010190
X014685Y010190
X023654Y010190
X009685Y010268
X014685Y005268
T101
X023671Y038258
X042694Y019257
X028685Y018268
X030675Y038258
X048670Y030253
X025685Y016268
X052685Y013268
X052685Y025268
X033688Y037278
X041685Y037268
X008685Y028268
X052700Y027250
X013689Y028275
X037685Y034268
X033675Y027275
X020676Y036261
X015696Y036261
X032676Y025278
X042682Y033269
X027679Y026266
X023674Y018262
X018699Y038258
X026692Y028275
X020699Y016271
X023685Y028268
X031692Y027261
X030681Y029267
X049684Y027250
X013690Y038258
X045695Y023268
X010703Y016271
X031685Y018268
X033698Y017281
X047687Y020268
X042702Y026287
X026676Y025279
X030685Y016268
X044680Y033269
X010678Y026263
X018695Y028275
X015694Y016271
X024667Y037249
X040673Y019257
X029685Y017268
X033685Y027268
X015678Y026263
X013689Y018262
X018695Y018262
X027679Y027261
X052685Y033269
X025703Y036261
X020685Y026257
X028679Y038258
X043685Y023268
X040682Y029261
X008685Y018268
X035677Y034277
X045688Y020268
X055685Y012268
X045674Y030253
T102
X049685Y013268
X049685Y012268
X047685Y013268
X047685Y012268
T103
X004685Y024268
X026699Y030268
X011696Y034268
X016699Y020268
X013688Y020269
X005685Y014268
X009707Y040272
X012699Y030268
X020688Y034264
X021699Y020268
X026685Y024268
X005685Y024268
X026685Y014268
X008688Y030269
X035692Y008267
X009685Y014268
X019699Y040268
X035692Y005267
X020685Y024268
X033674Y014269
X028688Y030269
X024685Y014268
X012685Y024268
X004696Y030273
X030689Y040264
X008688Y020269
X029696Y020273
X031699Y020268
X020702Y040264
X032689Y040264
X023691Y040265
X030699Y020268
X033674Y024269
X023688Y030269
X031689Y040264
X007699Y020268
X007699Y030268
X027699Y020268
X022685Y024268
X033688Y020269
X018688Y020269
X010696Y034268
X019689Y034264
X022699Y030268
X020699Y020268
X031685Y014268
X024685Y024268
X016685Y014268
X024696Y020273
X007685Y024268
X028688Y020269
X011685Y014268
X011685Y024268
X013674Y014269
X008674Y014269
X014685Y014268
X035692Y007267
X014707Y040272
X019696Y030273
X035692Y006267
X011699Y020268
X030685Y014268
X024675Y034264
X021699Y030268
X010699Y030268
X025685Y024268
X015699Y030268
X017699Y030268
X029675Y034264
X018699Y040268
X027689Y040264
X029696Y030273
X019685Y014268
X035692Y004267
X008674Y024269
X013688Y030269
X009685Y024268
X011699Y030268
X033664Y034265
X015710Y040268
X017696Y034268
X006685Y014268
X014696Y020273
X016710Y040268
X015696Y034268
X024696Y030273
X012699Y020268
X017685Y014268
X016685Y024268
X023674Y024269
X021685Y014268
X028674Y024269
X021703Y040264
X032685Y014268
X031685Y024268
X033678Y040265
X025685Y014268
X015685Y014268
X011710Y040268
X012710Y040268
X028678Y040265
X004696Y020273
X029685Y024268
X019685Y024268
X010710Y040268
X026689Y040264
X013685Y034268
X021689Y034264
X013699Y040268
X027675Y034264
X017699Y020268
X014696Y030273
X016699Y030268
X015685Y024268
X014685Y024268
X027685Y014268
X020699Y030268
X023688Y020269
X007685Y014268
X018674Y024269
X009696Y030273
X016696Y034268
X015699Y020268
X018674Y014269
X022699Y020268
X029685Y040268
X009696Y020273
X032699Y020268
X022689Y034264
X027685Y024268
X017685Y024268
X022702Y040264
X005699Y020268
X023677Y034265
X026699Y020268
X006685Y024268
X014696Y034268
X023674Y014269
X006699Y030268
X009696Y034268
X006699Y020268
X031675Y034264
X010685Y014268
X033688Y030269
X025675Y034264
X030685Y024268
X019696Y020273
X017710Y040268
X032685Y024268
X012685Y014268
X005699Y030268
X026675Y034264
X012696Y034268
X032675Y034264
X027699Y030268
X024685Y040268
X020685Y014268
X029685Y014268
X030675Y034264
X025689Y040264
X010699Y020268
X013674Y024269
X031699Y030268
X025699Y030268
X021685Y024268
X030699Y030268
X032699Y030268
X018685Y034268
X004685Y014268
X010685Y024268
X025699Y020268
X028674Y014269
X022685Y014268
X028664Y034265
X018688Y030269
T104
X044699Y015268
X042699Y018268
X040685Y028268
X046699Y015268
X040699Y015268
X041685Y025268
X039685Y025268
X047699Y015268
X038685Y038268
X048685Y025268
X047699Y018268
X040685Y025268
X047685Y025268
X039685Y035268
X044685Y038268
X052685Y013268
X044685Y025268
X042685Y035268
X052685Y037268
X038699Y015268
X045699Y015268
X052685Y017268
X048685Y038268
X043699Y015268
X046685Y035268
X052685Y027268
X044699Y018268
X042685Y025268
X038685Y035268
X039699Y015268
X041685Y038268
X043685Y035268
X047685Y028268
X045685Y035268
X049699Y018268
X042699Y015268
X040685Y035268
X040699Y018268
X038685Y028268
X048685Y035268
X042685Y028268
X046699Y018268
X041685Y035268
X043685Y028268
X045685Y025268
X041685Y028268
X046685Y028268
X052685Y023268
X043699Y018268
X041699Y018268
X049699Y015268
X045699Y018268
X046685Y038268
X040685Y038268
X039685Y038268
X048699Y015268
X044685Y028268
X046685Y025268
X049685Y028268
X041699Y015268
X048699Y018268
X049685Y038268
X043685Y038268
X049685Y025268
X038685Y025268
X048685Y028268
X049685Y035268
X042685Y038268
X039699Y018268
X045685Y038268
X047685Y035268
X038699Y018268
X043685Y025268
X044685Y035268
X039685Y028268
X047685Y038268
X052685Y033268
X045685Y028268
T105
X048685Y004268
X050685Y004268
X048685Y010268
X047685Y010268
X039685Y010268
X045685Y010268
X044685Y010268
X049685Y010268
X043685Y010268
X042685Y010268
X039685Y004268
X040685Y004268
X051685Y010268
X053685Y010268
X051685Y004268
X041685Y010268
X044685Y004268
X052685Y010268
X052685Y004268
X050685Y010268
X042685Y004268
X041685Y004268
X040685Y010268
X053685Y004268
X046685Y010268
X047685Y004268
X049685Y004268
X045685Y004268
X046685Y004268
X043685Y004268
T00
M30
